<?xml version="1.0" encoding="UTF-8" standalone="no"?>
<!DOCTYPE svg PUBLIC "-//W3C//DTD SVG 1.1//EN"
 "http://www.w3.org/Graphics/SVG/1.1/DTD/svg11.dtd">
<!-- Generated by graphviz version 8.0.1 (20230327.1645)
 -->
<!-- Title: snakemake_dag Pages: 1 -->
<svg width="382pt" height="692pt"
 viewBox="0.00 0.00 381.50 692.00" xmlns="http://www.w3.org/2000/svg" xmlns:xlink="http://www.w3.org/1999/xlink">
<g id="graph0" class="graph" transform="scale(1 1) rotate(0) translate(4 688)">
<title>snakemake_dag</title>
<polygon fill="white" stroke="none" points="-4,4 -4,-688 377.5,-688 377.5,4 -4,4"/>
<!-- 0 -->
<g id="node1" class="node">
<title>0</title>
<path fill="none" stroke="#afd856" stroke-width="2" d="M182,-36C182,-36 152,-36 152,-36 146,-36 140,-30 140,-24 140,-24 140,-12 140,-12 140,-6 146,0 152,0 152,0 182,0 182,0 188,0 194,-6 194,-12 194,-12 194,-24 194,-24 194,-30 188,-36 182,-36"/>
<text text-anchor="middle" x="167" y="-15.5" font-family="sans" font-size="10.00">all</text>
</g>
<!-- 1 -->
<g id="node2" class="node">
<title>1</title>
<path fill="none" stroke="#56a9d8" stroke-width="2" d="M201.5,-108C201.5,-108 132.5,-108 132.5,-108 126.5,-108 120.5,-102 120.5,-96 120.5,-96 120.5,-84 120.5,-84 120.5,-78 126.5,-72 132.5,-72 132.5,-72 201.5,-72 201.5,-72 207.5,-72 213.5,-78 213.5,-84 213.5,-84 213.5,-96 213.5,-96 213.5,-102 207.5,-108 201.5,-108"/>
<text text-anchor="middle" x="167" y="-87.5" font-family="sans" font-size="10.00">modkit_unphased</text>
</g>
<!-- 1&#45;&gt;0 -->
<g id="edge2" class="edge">
<title>1&#45;&gt;0</title>
<path fill="none" stroke="grey" stroke-width="2" d="M167,-71.34C167,-64.75 167,-57.08 167,-49.67"/>
<polygon fill="grey" stroke="grey" stroke-width="2" points="170.5,-49.9 167,-39.9 163.5,-49.9 170.5,-49.9"/>
</g>
<!-- 2 -->
<g id="node3" class="node">
<title>2</title>
<path fill="none" stroke="#56d873" stroke-width="2" d="M107,-180C107,-180 77,-180 77,-180 71,-180 65,-174 65,-168 65,-168 65,-156 65,-156 65,-150 71,-144 77,-144 77,-144 107,-144 107,-144 113,-144 119,-150 119,-156 119,-156 119,-168 119,-168 119,-174 113,-180 107,-180"/>
<text text-anchor="middle" x="92" y="-159.5" font-family="sans" font-size="10.00">haplotag</text>
</g>
<!-- 2&#45;&gt;0 -->
<g id="edge1" class="edge">
<title>2&#45;&gt;0</title>
<path fill="none" stroke="grey" stroke-width="2" d="M92.71,-143.19C94.14,-124.4 98.39,-94.46 111,-72 116.51,-62.18 124.44,-53.1 132.61,-45.32"/>
<polygon fill="grey" stroke="grey" stroke-width="2" points="135.03,-48.09 140.18,-38.83 130.38,-42.85 135.03,-48.09"/>
</g>
<!-- 2&#45;&gt;1 -->
<g id="edge5" class="edge">
<title>2&#45;&gt;1</title>
<path fill="none" stroke="grey" stroke-width="2" d="M110.93,-143.34C119.3,-135.52 129.33,-126.16 138.57,-117.53"/>
<polygon fill="grey" stroke="grey" stroke-width="2" points="140.9,-120.28 145.82,-110.9 136.12,-115.17 140.9,-120.28"/>
</g>
<!-- 3 -->
<g id="node4" class="node">
<title>3</title>
<path fill="none" stroke="#56d8c9" stroke-width="2" d="M110.5,-252C110.5,-252 73.5,-252 73.5,-252 67.5,-252 61.5,-246 61.5,-240 61.5,-240 61.5,-228 61.5,-228 61.5,-222 67.5,-216 73.5,-216 73.5,-216 110.5,-216 110.5,-216 116.5,-216 122.5,-222 122.5,-228 122.5,-228 122.5,-240 122.5,-240 122.5,-246 116.5,-252 110.5,-252"/>
<text text-anchor="middle" x="92" y="-231.5" font-family="sans" font-size="10.00">longphase</text>
</g>
<!-- 3&#45;&gt;2 -->
<g id="edge7" class="edge">
<title>3&#45;&gt;2</title>
<path fill="none" stroke="grey" stroke-width="2" d="M92,-215.34C92,-208.75 92,-201.08 92,-193.67"/>
<polygon fill="grey" stroke="grey" stroke-width="2" points="95.5,-193.9 92,-183.9 88.5,-193.9 95.5,-193.9"/>
</g>
<!-- 4 -->
<g id="node5" class="node">
<title>4</title>
<path fill="none" stroke="#d89c56" stroke-width="2" d="M165,-324C165,-324 101,-324 101,-324 95,-324 89,-318 89,-312 89,-312 89,-300 89,-300 89,-294 95,-288 101,-288 101,-288 165,-288 165,-288 171,-288 177,-294 177,-300 177,-300 177,-312 177,-312 177,-318 171,-324 165,-324"/>
<text text-anchor="middle" x="133" y="-303.5" font-family="sans" font-size="10.00">merge_chr_calls</text>
</g>
<!-- 4&#45;&gt;3 -->
<g id="edge9" class="edge">
<title>4&#45;&gt;3</title>
<path fill="none" stroke="grey" stroke-width="2" d="M122.65,-287.34C118.51,-280.26 113.63,-271.92 108.99,-264"/>
<polygon fill="grey" stroke="grey" stroke-width="2" points="111.56,-261.76 103.49,-254.9 105.52,-265.3 111.56,-261.76"/>
</g>
<!-- 5 -->
<g id="node6" class="node">
<title>5</title>
<path fill="none" stroke="#56b9d8" stroke-width="2" d="M131,-396C131,-396 101,-396 101,-396 95,-396 89,-390 89,-384 89,-384 89,-372 89,-372 89,-366 95,-360 101,-360 101,-360 131,-360 131,-360 137,-360 143,-366 143,-372 143,-372 143,-384 143,-384 143,-390 137,-396 131,-396"/>
<text text-anchor="middle" x="116" y="-375.5" font-family="sans" font-size="10.00">clair3</text>
</g>
<!-- 5&#45;&gt;4 -->
<g id="edge10" class="edge">
<title>5&#45;&gt;4</title>
<path fill="none" stroke="grey" stroke-width="2" d="M120.29,-359.34C121.91,-352.67 123.8,-344.89 125.62,-337.39"/>
<polygon fill="grey" stroke="grey" stroke-width="2" points="129.69,-337.45 128.65,-326.9 122.89,-335.79 129.69,-337.45"/>
</g>
<!-- 6 -->
<g id="node7" class="node">
<title>6</title>
<path fill="none" stroke="#56d8a2" stroke-width="2" d="M184.5,-468C184.5,-468 101.5,-468 101.5,-468 95.5,-468 89.5,-462 89.5,-456 89.5,-456 89.5,-444 89.5,-444 89.5,-438 95.5,-432 101.5,-432 101.5,-432 184.5,-432 184.5,-432 190.5,-432 196.5,-438 196.5,-444 196.5,-444 196.5,-456 196.5,-456 196.5,-462 190.5,-468 184.5,-468"/>
<text text-anchor="middle" x="143" y="-447.5" font-family="sans" font-size="10.00">split_bam_by_chrom</text>
</g>
<!-- 6&#45;&gt;5 -->
<g id="edge12" class="edge">
<title>6&#45;&gt;5</title>
<path fill="none" stroke="grey" stroke-width="2" d="M136.19,-431.34C133.55,-424.51 130.46,-416.5 127.51,-408.83"/>
<polygon fill="grey" stroke="grey" stroke-width="2" points="130.77,-406.97 123.9,-398.9 124.24,-409.49 130.77,-406.97"/>
</g>
<!-- 10 -->
<g id="node11" class="node">
<title>10</title>
<path fill="none" stroke="#56d882" stroke-width="2" d="M203,-396C203,-396 173,-396 173,-396 167,-396 161,-390 161,-384 161,-384 161,-372 161,-372 161,-366 167,-360 173,-360 173,-360 203,-360 203,-360 209,-360 215,-366 215,-372 215,-372 215,-384 215,-384 215,-390 209,-396 203,-396"/>
<text text-anchor="middle" x="188" y="-375.5" font-family="sans" font-size="10.00">sniffles</text>
</g>
<!-- 6&#45;&gt;10 -->
<g id="edge16" class="edge">
<title>6&#45;&gt;10</title>
<path fill="none" stroke="grey" stroke-width="2" d="M154.36,-431.34C158.96,-424.18 164.39,-415.73 169.53,-407.73"/>
<polygon fill="grey" stroke="grey" stroke-width="2" points="173.03,-409.21 175.49,-398.9 167.14,-405.42 173.03,-409.21"/>
</g>
<!-- 7 -->
<g id="node8" class="node">
<title>7</title>
<path fill="none" stroke="#59d856" stroke-width="2" d="M83.5,-540C83.5,-540 38.5,-540 38.5,-540 32.5,-540 26.5,-534 26.5,-528 26.5,-528 26.5,-516 26.5,-516 26.5,-510 32.5,-504 38.5,-504 38.5,-504 83.5,-504 83.5,-504 89.5,-504 95.5,-510 95.5,-516 95.5,-516 95.5,-528 95.5,-528 95.5,-534 89.5,-540 83.5,-540"/>
<text text-anchor="middle" x="61" y="-519.5" font-family="sans" font-size="10.00">merge_align</text>
</g>
<!-- 7&#45;&gt;2 -->
<g id="edge6" class="edge">
<title>7&#45;&gt;2</title>
<path fill="none" stroke="grey" stroke-width="2" d="M52.94,-503.03C41.79,-476.48 23,-424.94 23,-379 23,-379 23,-379 23,-305 23,-263.4 32.76,-252.89 52,-216 56.54,-207.29 62.5,-198.5 68.42,-190.65"/>
<polygon fill="grey" stroke="grey" stroke-width="2" points="71.88,-192.65 75.34,-182.63 66.39,-188.31 71.88,-192.65"/>
</g>
<!-- 7&#45;&gt;3 -->
<g id="edge8" class="edge">
<title>7&#45;&gt;3</title>
<path fill="none" stroke="grey" stroke-width="2" d="M61.6,-503.07C63.1,-463.86 67.8,-367.63 80,-288 81.14,-280.54 82.74,-272.57 84.4,-265.13"/>
<polygon fill="grey" stroke="grey" stroke-width="2" points="88.48,-265.08 87.37,-254.55 81.67,-263.48 88.48,-265.08"/>
</g>
<!-- 7&#45;&gt;6 -->
<g id="edge13" class="edge">
<title>7&#45;&gt;6</title>
<path fill="none" stroke="grey" stroke-width="2" d="M81.69,-503.34C90.94,-495.44 102.04,-485.96 112.24,-477.26"/>
<polygon fill="grey" stroke="grey" stroke-width="2" points="114.7,-479.06 120.03,-469.9 110.15,-473.73 114.7,-479.06"/>
</g>
<!-- 8 -->
<g id="node9" class="node">
<title>8</title>
<path fill="none" stroke="#56c9d8" stroke-width="2" d="M110,-612C110,-612 12,-612 12,-612 6,-612 0,-606 0,-600 0,-600 0,-588 0,-588 0,-582 6,-576 12,-576 12,-576 110,-576 110,-576 116,-576 122,-582 122,-588 122,-588 122,-600 122,-600 122,-606 116,-612 110,-612"/>
<text text-anchor="middle" x="61" y="-591.5" font-family="sans" font-size="10.00">link_meth_tags_non_trio</text>
</g>
<!-- 8&#45;&gt;7 -->
<g id="edge14" class="edge">
<title>8&#45;&gt;7</title>
<path fill="none" stroke="grey" stroke-width="2" d="M61,-575.34C61,-568.75 61,-561.08 61,-553.67"/>
<polygon fill="grey" stroke="grey" stroke-width="2" points="64.5,-553.9 61,-543.9 57.5,-553.9 64.5,-553.9"/>
</g>
<!-- 9 -->
<g id="node10" class="node">
<title>9</title>
<path fill="none" stroke="#68d856" stroke-width="2" d="M76,-684C76,-684 46,-684 46,-684 40,-684 34,-678 34,-672 34,-672 34,-660 34,-660 34,-654 40,-648 46,-648 46,-648 76,-648 76,-648 82,-648 88,-654 88,-660 88,-660 88,-672 88,-672 88,-678 82,-684 76,-684"/>
<text text-anchor="middle" x="61" y="-663.5" font-family="sans" font-size="10.00">align</text>
</g>
<!-- 9&#45;&gt;8 -->
<g id="edge15" class="edge">
<title>9&#45;&gt;8</title>
<path fill="none" stroke="grey" stroke-width="2" d="M61,-647.34C61,-640.75 61,-633.08 61,-625.67"/>
<polygon fill="grey" stroke="grey" stroke-width="2" points="64.5,-625.9 61,-615.9 57.5,-625.9 64.5,-625.9"/>
</g>
<!-- 10&#45;&gt;4 -->
<g id="edge11" class="edge">
<title>10&#45;&gt;4</title>
<path fill="none" stroke="grey" stroke-width="2" d="M174.12,-359.34C168.3,-351.93 161.4,-343.14 154.92,-334.9"/>
<polygon fill="grey" stroke="grey" stroke-width="2" points="157,-332.6 148.07,-326.9 151.49,-336.93 157,-332.6"/>
</g>
<!-- 11 -->
<g id="node12" class="node">
<title>11</title>
<path fill="none" stroke="#d88556" stroke-width="2" d="M284.5,-108C284.5,-108 243.5,-108 243.5,-108 237.5,-108 231.5,-102 231.5,-96 231.5,-96 231.5,-84 231.5,-84 231.5,-78 237.5,-72 243.5,-72 243.5,-72 284.5,-72 284.5,-72 290.5,-72 296.5,-78 296.5,-84 296.5,-84 296.5,-96 296.5,-96 296.5,-102 290.5,-108 284.5,-108"/>
<text text-anchor="middle" x="264" y="-87.5" font-family="sans" font-size="10.00">modkit_trio</text>
</g>
<!-- 11&#45;&gt;0 -->
<g id="edge3" class="edge">
<title>11&#45;&gt;0</title>
<path fill="none" stroke="grey" stroke-width="2" d="M239.27,-71.15C227.98,-63.01 214.41,-53.22 202.1,-44.33"/>
<polygon fill="grey" stroke="grey" stroke-width="2" points="203.84,-40.83 193.68,-37.81 199.74,-46.5 203.84,-40.83"/>
</g>
<!-- 12 -->
<g id="node13" class="node">
<title>12</title>
<path fill="none" stroke="#5682d8" stroke-width="2" d="M309,-252C309,-252 219,-252 219,-252 213,-252 207,-246 207,-240 207,-240 207,-228 207,-228 207,-222 213,-216 219,-216 219,-216 309,-216 309,-216 315,-216 321,-222 321,-228 321,-228 321,-240 321,-240 321,-246 315,-252 309,-252"/>
<text text-anchor="middle" x="264" y="-231.5" font-family="sans" font-size="10.00">combine_bam_by_hap</text>
</g>
<!-- 12&#45;&gt;11 -->
<g id="edge17" class="edge">
<title>12&#45;&gt;11</title>
<path fill="none" stroke="grey" stroke-width="2" d="M264,-215.02C264,-191.54 264,-150.11 264,-121.64"/>
<polygon fill="grey" stroke="grey" stroke-width="2" points="267.5,-121.84 264,-111.84 260.5,-121.84 267.5,-121.84"/>
</g>
<!-- 20 -->
<g id="node21" class="node">
<title>20</title>
<path fill="none" stroke="#d87556" stroke-width="2" d="M222,-180C222,-180 152,-180 152,-180 146,-180 140,-174 140,-168 140,-168 140,-156 140,-156 140,-150 146,-144 152,-144 152,-144 222,-144 222,-144 228,-144 234,-150 234,-156 234,-156 234,-168 234,-168 234,-174 228,-180 222,-180"/>
<text text-anchor="middle" x="187" y="-159.5" font-family="sans" font-size="10.00">merge_hap_bams</text>
</g>
<!-- 12&#45;&gt;20 -->
<g id="edge26" class="edge">
<title>12&#45;&gt;20</title>
<path fill="none" stroke="grey" stroke-width="2" d="M244.57,-215.34C235.97,-207.52 225.68,-198.16 216.19,-189.53"/>
<polygon fill="grey" stroke="grey" stroke-width="2" points="218.45,-187.04 208.69,-182.9 213.74,-192.22 218.45,-187.04"/>
</g>
<!-- 13 -->
<g id="node14" class="node">
<title>13</title>
<path fill="none" stroke="#56d863" stroke-width="2" d="M314.5,-324C314.5,-324 255.5,-324 255.5,-324 249.5,-324 243.5,-318 243.5,-312 243.5,-312 243.5,-300 243.5,-300 243.5,-294 249.5,-288 255.5,-288 255.5,-288 314.5,-288 314.5,-288 320.5,-288 326.5,-294 326.5,-300 326.5,-300 326.5,-312 326.5,-312 326.5,-318 320.5,-324 314.5,-324"/>
<text text-anchor="middle" x="285" y="-303.5" font-family="sans" font-size="10.00">link_meth_tags</text>
</g>
<!-- 13&#45;&gt;12 -->
<g id="edge18" class="edge">
<title>13&#45;&gt;12</title>
<path fill="none" stroke="grey" stroke-width="2" d="M279.7,-287.34C277.68,-280.59 275.31,-272.69 273.03,-265.11"/>
<polygon fill="grey" stroke="grey" stroke-width="2" points="275.6,-263.47 269.37,-254.9 268.89,-265.49 275.6,-263.47"/>
</g>
<!-- 14 -->
<g id="node15" class="node">
<title>14</title>
<path fill="none" stroke="#5663d8" stroke-width="2" d="M347,-396C347,-396 245,-396 245,-396 239,-396 233,-390 233,-384 233,-384 233,-372 233,-372 233,-366 239,-360 245,-360 245,-360 347,-360 347,-360 353,-360 359,-366 359,-372 359,-372 359,-384 359,-384 359,-390 353,-396 347,-396"/>
<text text-anchor="middle" x="296" y="-375.5" font-family="sans" font-size="10.00">align_hap_specific_reads</text>
</g>
<!-- 14&#45;&gt;13 -->
<g id="edge19" class="edge">
<title>14&#45;&gt;13</title>
<path fill="none" stroke="grey" stroke-width="2" d="M293.22,-359.34C292.19,-352.75 290.98,-345.08 289.82,-337.67"/>
<polygon fill="grey" stroke="grey" stroke-width="2" points="292.82,-336.24 287.81,-326.9 285.91,-337.32 292.82,-336.24"/>
</g>
<!-- 15 -->
<g id="node16" class="node">
<title>15</title>
<path fill="none" stroke="#56a2d8" stroke-width="2" d="M361.5,-468C361.5,-468 230.5,-468 230.5,-468 224.5,-468 218.5,-462 218.5,-456 218.5,-456 218.5,-444 218.5,-444 218.5,-438 224.5,-432 230.5,-432 230.5,-432 361.5,-432 361.5,-432 367.5,-432 373.5,-438 373.5,-444 373.5,-444 373.5,-456 373.5,-456 373.5,-462 367.5,-468 361.5,-468"/>
<text text-anchor="middle" x="296" y="-447.5" font-family="sans" font-size="10.00">correspond_fastq_reads_to_hap</text>
</g>
<!-- 15&#45;&gt;14 -->
<g id="edge20" class="edge">
<title>15&#45;&gt;14</title>
<path fill="none" stroke="grey" stroke-width="2" d="M296,-431.34C296,-424.75 296,-417.08 296,-409.67"/>
<polygon fill="grey" stroke="grey" stroke-width="2" points="299.5,-409.9 296,-399.9 292.5,-409.9 299.5,-409.9"/>
</g>
<!-- 16 -->
<g id="node17" class="node">
<title>16</title>
<path fill="none" stroke="#d6d856" stroke-width="2" d="M332.5,-540C332.5,-540 259.5,-540 259.5,-540 253.5,-540 247.5,-534 247.5,-528 247.5,-528 247.5,-516 247.5,-516 247.5,-510 253.5,-504 259.5,-504 259.5,-504 332.5,-504 332.5,-504 338.5,-504 344.5,-510 344.5,-516 344.5,-516 344.5,-528 344.5,-528 344.5,-534 338.5,-540 332.5,-540"/>
<text text-anchor="middle" x="296" y="-519.5" font-family="sans" font-size="10.00">extract_hap_reads</text>
</g>
<!-- 16&#45;&gt;15 -->
<g id="edge21" class="edge">
<title>16&#45;&gt;15</title>
<path fill="none" stroke="grey" stroke-width="2" d="M296,-503.34C296,-496.75 296,-489.08 296,-481.67"/>
<polygon fill="grey" stroke="grey" stroke-width="2" points="299.5,-481.9 296,-471.9 292.5,-481.9 299.5,-481.9"/>
</g>
<!-- 17 -->
<g id="node18" class="node">
<title>17</title>
<path fill="none" stroke="#80d856" stroke-width="2" d="M277.5,-612C277.5,-612 234.5,-612 234.5,-612 228.5,-612 222.5,-606 222.5,-600 222.5,-600 222.5,-588 222.5,-588 222.5,-582 228.5,-576 234.5,-576 234.5,-576 277.5,-576 277.5,-576 283.5,-576 289.5,-582 289.5,-588 289.5,-588 289.5,-600 289.5,-600 289.5,-606 283.5,-612 277.5,-612"/>
<text text-anchor="middle" x="256" y="-597" font-family="sans" font-size="10.00">hifiasm_trio</text>
<text text-anchor="middle" x="256" y="-586" font-family="sans" font-size="10.00">tech=hifi</text>
</g>
<!-- 17&#45;&gt;16 -->
<g id="edge23" class="edge">
<title>17&#45;&gt;16</title>
<path fill="none" stroke="grey" stroke-width="2" d="M266.09,-575.34C270.14,-568.26 274.9,-559.92 279.43,-552"/>
<polygon fill="grey" stroke="grey" stroke-width="2" points="282.85,-553.32 284.77,-542.9 276.77,-549.85 282.85,-553.32"/>
</g>
<!-- 18 -->
<g id="node19" class="node">
<title>18</title>
<path fill="none" stroke="#8fd856" stroke-width="2" d="M234,-684C234,-684 188,-684 188,-684 182,-684 176,-678 176,-672 176,-672 176,-660 176,-660 176,-654 182,-648 188,-648 188,-648 234,-648 234,-648 240,-648 246,-654 246,-660 246,-660 246,-672 246,-672 246,-678 240,-684 234,-684"/>
<text text-anchor="middle" x="211" y="-669" font-family="sans" font-size="10.00">yak_parents</text>
<text text-anchor="middle" x="211" y="-658" font-family="sans" font-size="10.00">tech=hifi</text>
</g>
<!-- 18&#45;&gt;17 -->
<g id="edge25" class="edge">
<title>18&#45;&gt;17</title>
<path fill="none" stroke="grey" stroke-width="2" d="M222.36,-647.34C226.96,-640.18 232.39,-631.73 237.53,-623.73"/>
<polygon fill="grey" stroke="grey" stroke-width="2" points="241.03,-625.21 243.49,-614.9 235.14,-621.42 241.03,-625.21"/>
</g>
<!-- 19 -->
<g id="node20" class="node">
<title>19</title>
<path fill="none" stroke="#5692d8" stroke-width="2" d="M323.5,-684C323.5,-684 276.5,-684 276.5,-684 270.5,-684 264.5,-678 264.5,-672 264.5,-672 264.5,-660 264.5,-660 264.5,-654 270.5,-648 276.5,-648 276.5,-648 323.5,-648 323.5,-648 329.5,-648 335.5,-654 335.5,-660 335.5,-660 335.5,-672 335.5,-672 335.5,-678 329.5,-684 323.5,-684"/>
<text text-anchor="middle" x="300" y="-669" font-family="sans" font-size="10.00">hifiasm_dual</text>
<text text-anchor="middle" x="300" y="-658" font-family="sans" font-size="10.00">tech=hifi</text>
</g>
<!-- 19&#45;&gt;17 -->
<g id="edge24" class="edge">
<title>19&#45;&gt;17</title>
<path fill="none" stroke="grey" stroke-width="2" d="M288.9,-647.34C284.4,-640.18 279.09,-631.73 274.06,-623.73"/>
<polygon fill="grey" stroke="grey" stroke-width="2" points="276.54,-621.51 268.25,-614.9 270.61,-625.23 276.54,-621.51"/>
</g>
<!-- 20&#45;&gt;1 -->
<g id="edge4" class="edge">
<title>20&#45;&gt;1</title>
<path fill="none" stroke="grey" stroke-width="2" d="M181.95,-143.34C180.05,-136.67 177.82,-128.89 175.68,-121.39"/>
<polygon fill="grey" stroke="grey" stroke-width="2" points="178.23,-119.56 172.11,-110.9 171.5,-121.48 178.23,-119.56"/>
</g>
<!-- 21 -->
<g id="node22" class="node">
<title>21</title>
<path fill="none" stroke="#80d856" stroke-width="2" d="M352,-612C352,-612 320,-612 320,-612 314,-612 308,-606 308,-600 308,-600 308,-588 308,-588 308,-582 314,-576 320,-576 320,-576 352,-576 352,-576 358,-576 364,-582 364,-588 364,-588 364,-600 364,-600 364,-606 358,-612 352,-612"/>
<text text-anchor="middle" x="336" y="-597" font-family="sans" font-size="10.00">canu_trio</text>
<text text-anchor="middle" x="336" y="-586" font-family="sans" font-size="10.00">tech=ont</text>
</g>
<!-- 21&#45;&gt;16 -->
<g id="edge22" class="edge">
<title>21&#45;&gt;16</title>
<path fill="none" stroke="grey" stroke-width="2" d="M325.91,-575.34C321.86,-568.26 317.1,-559.92 312.57,-552"/>
<polygon fill="grey" stroke="grey" stroke-width="2" points="315.23,-549.85 307.23,-542.9 309.15,-553.32 315.23,-549.85"/>
</g>
</g>
</svg>
