<?xml version="1.0" encoding="UTF-8" standalone="no"?>
<!DOCTYPE svg PUBLIC "-//W3C//DTD SVG 1.1//EN"
 "http://www.w3.org/Graphics/SVG/1.1/DTD/svg11.dtd">
<!-- Generated by graphviz version 3.0.0 (0)
 -->
<!-- Title: snakemake_dag Pages: 1 -->
<svg width="382pt" height="719pt"
 viewBox="0.00 0.00 381.50 719.00" xmlns="http://www.w3.org/2000/svg" xmlns:xlink="http://www.w3.org/1999/xlink">
<g id="graph0" class="graph" transform="scale(1 1) rotate(0) translate(4 715)">
<title>snakemake_dag</title>
<polygon fill="white" stroke="transparent" points="-4,4 -4,-715 377.5,-715 377.5,4 -4,4"/>
<!-- 0 -->
<g id="node1" class="node">
<title>0</title>
<path fill="none" stroke="#afd856" stroke-width="2" d="M182,-36C182,-36 152,-36 152,-36 146,-36 140,-30 140,-24 140,-24 140,-12 140,-12 140,-6 146,0 152,0 152,0 182,0 182,0 188,0 194,-6 194,-12 194,-12 194,-24 194,-24 194,-30 188,-36 182,-36"/>
<text text-anchor="middle" x="167" y="-15.5" font-family="sans" font-size="10.00">all</text>
</g>
<!-- 1 -->
<g id="node2" class="node">
<title>1</title>
<path fill="none" stroke="#56a9d8" stroke-width="2" d="M201.5,-135C201.5,-135 132.5,-135 132.5,-135 126.5,-135 120.5,-129 120.5,-123 120.5,-123 120.5,-84 120.5,-84 120.5,-78 126.5,-72 132.5,-72 132.5,-72 201.5,-72 201.5,-72 207.5,-72 213.5,-78 213.5,-84 213.5,-84 213.5,-123 213.5,-123 213.5,-129 207.5,-135 201.5,-135"/>
<text text-anchor="middle" x="167" y="-123" font-family="sans" font-size="10.00">modkit_unphased</text>
<text text-anchor="middle" x="167" y="-112" font-family="sans" font-size="10.00">tech=ont</text>
<text text-anchor="middle" x="167" y="-101" font-family="sans" font-size="10.00">&#45;&#45;&#45;</text>
<text text-anchor="middle" x="167" y="-90" font-family="sans" font-size="10.00">call_cpg_hifi</text>
<text text-anchor="middle" x="167" y="-79" font-family="sans" font-size="10.00">tech=hifi</text>
</g>
<!-- 1&#45;&gt;0 -->
<g id="edge2" class="edge">
<title>1&#45;&gt;0</title>
<path fill="none" stroke="grey" stroke-width="2" d="M167,-71.88C167,-63.47 167,-54.4 167,-46.19"/>
<polygon fill="grey" stroke="grey" stroke-width="2" points="170.5,-46.03 167,-36.03 163.5,-46.03 170.5,-46.03"/>
</g>
<!-- 2 -->
<g id="node3" class="node">
<title>2</title>
<path fill="none" stroke="#56d873" stroke-width="2" d="M107,-207C107,-207 77,-207 77,-207 71,-207 65,-201 65,-195 65,-195 65,-183 65,-183 65,-177 71,-171 77,-171 77,-171 107,-171 107,-171 113,-171 119,-177 119,-183 119,-183 119,-195 119,-195 119,-201 113,-207 107,-207"/>
<text text-anchor="middle" x="92" y="-186.5" font-family="sans" font-size="10.00">haplotag</text>
</g>
<!-- 2&#45;&gt;0 -->
<g id="edge1" class="edge">
<title>2&#45;&gt;0</title>
<path fill="none" stroke="grey" stroke-width="2" d="M91.48,-170.79C91.47,-147.15 94.08,-103.91 111,-72 116.83,-61.01 125.81,-51.01 134.89,-42.73"/>
<polygon fill="grey" stroke="grey" stroke-width="2" points="137.17,-45.38 142.46,-36.2 132.6,-40.08 137.17,-45.38"/>
</g>
<!-- 2&#45;&gt;1 -->
<g id="edge5" class="edge">
<title>2&#45;&gt;1</title>
<path fill="none" stroke="grey" stroke-width="2" d="M107.54,-170.7C114.79,-162.63 123.72,-152.69 132.44,-142.98"/>
<polygon fill="grey" stroke="grey" stroke-width="2" points="135.27,-145.06 139.35,-135.28 130.06,-140.38 135.27,-145.06"/>
</g>
<!-- 3 -->
<g id="node4" class="node">
<title>3</title>
<path fill="none" stroke="#56d8c9" stroke-width="2" d="M110.5,-279C110.5,-279 73.5,-279 73.5,-279 67.5,-279 61.5,-273 61.5,-267 61.5,-267 61.5,-255 61.5,-255 61.5,-249 67.5,-243 73.5,-243 73.5,-243 110.5,-243 110.5,-243 116.5,-243 122.5,-249 122.5,-255 122.5,-255 122.5,-267 122.5,-267 122.5,-273 116.5,-279 110.5,-279"/>
<text text-anchor="middle" x="92" y="-258.5" font-family="sans" font-size="10.00">longphase</text>
</g>
<!-- 3&#45;&gt;2 -->
<g id="edge7" class="edge">
<title>3&#45;&gt;2</title>
<path fill="none" stroke="grey" stroke-width="2" d="M92,-242.7C92,-234.98 92,-225.71 92,-217.11"/>
<polygon fill="grey" stroke="grey" stroke-width="2" points="95.5,-217.1 92,-207.1 88.5,-217.1 95.5,-217.1"/>
</g>
<!-- 4 -->
<g id="node5" class="node">
<title>4</title>
<path fill="none" stroke="#d89c56" stroke-width="2" d="M165,-351C165,-351 101,-351 101,-351 95,-351 89,-345 89,-339 89,-339 89,-327 89,-327 89,-321 95,-315 101,-315 101,-315 165,-315 165,-315 171,-315 177,-321 177,-327 177,-327 177,-339 177,-339 177,-345 171,-351 165,-351"/>
<text text-anchor="middle" x="133" y="-330.5" font-family="sans" font-size="10.00">merge_chr_calls</text>
</g>
<!-- 4&#45;&gt;3 -->
<g id="edge9" class="edge">
<title>4&#45;&gt;3</title>
<path fill="none" stroke="grey" stroke-width="2" d="M122.87,-314.7C118.15,-306.64 112.44,-296.89 107.22,-287.98"/>
<polygon fill="grey" stroke="grey" stroke-width="2" points="110.09,-285.96 102.02,-279.1 104.05,-289.5 110.09,-285.96"/>
</g>
<!-- 5 -->
<g id="node6" class="node">
<title>5</title>
<path fill="none" stroke="#56b9d8" stroke-width="2" d="M131,-423C131,-423 101,-423 101,-423 95,-423 89,-417 89,-411 89,-411 89,-399 89,-399 89,-393 95,-387 101,-387 101,-387 131,-387 131,-387 137,-387 143,-393 143,-399 143,-399 143,-411 143,-411 143,-417 137,-423 131,-423"/>
<text text-anchor="middle" x="116" y="-402.5" font-family="sans" font-size="10.00">clair3</text>
</g>
<!-- 5&#45;&gt;4 -->
<g id="edge10" class="edge">
<title>5&#45;&gt;4</title>
<path fill="none" stroke="grey" stroke-width="2" d="M120.2,-386.7C122.1,-378.9 124.38,-369.51 126.48,-360.83"/>
<polygon fill="grey" stroke="grey" stroke-width="2" points="129.89,-361.65 128.85,-351.1 123.08,-360 129.89,-361.65"/>
</g>
<!-- 6 -->
<g id="node7" class="node">
<title>6</title>
<path fill="none" stroke="#56d8a2" stroke-width="2" d="M184.5,-495C184.5,-495 101.5,-495 101.5,-495 95.5,-495 89.5,-489 89.5,-483 89.5,-483 89.5,-471 89.5,-471 89.5,-465 95.5,-459 101.5,-459 101.5,-459 184.5,-459 184.5,-459 190.5,-459 196.5,-465 196.5,-471 196.5,-471 196.5,-483 196.5,-483 196.5,-489 190.5,-495 184.5,-495"/>
<text text-anchor="middle" x="143" y="-474.5" font-family="sans" font-size="10.00">split_bam_by_chrom</text>
</g>
<!-- 6&#45;&gt;5 -->
<g id="edge12" class="edge">
<title>6&#45;&gt;5</title>
<path fill="none" stroke="grey" stroke-width="2" d="M136.33,-458.7C133.29,-450.81 129.62,-441.3 126.24,-432.55"/>
<polygon fill="grey" stroke="grey" stroke-width="2" points="129.46,-431.17 122.6,-423.1 122.93,-433.69 129.46,-431.17"/>
</g>
<!-- 10 -->
<g id="node11" class="node">
<title>10</title>
<path fill="none" stroke="#56d882" stroke-width="2" d="M203,-423C203,-423 173,-423 173,-423 167,-423 161,-417 161,-411 161,-411 161,-399 161,-399 161,-393 167,-387 173,-387 173,-387 203,-387 203,-387 209,-387 215,-393 215,-399 215,-399 215,-411 215,-411 215,-417 209,-423 203,-423"/>
<text text-anchor="middle" x="188" y="-402.5" font-family="sans" font-size="10.00">sniffles</text>
</g>
<!-- 6&#45;&gt;10 -->
<g id="edge16" class="edge">
<title>6&#45;&gt;10</title>
<path fill="none" stroke="grey" stroke-width="2" d="M154.12,-458.7C159.36,-450.56 165.7,-440.69 171.48,-431.7"/>
<polygon fill="grey" stroke="grey" stroke-width="2" points="174.54,-433.41 177,-423.1 168.65,-429.62 174.54,-433.41"/>
</g>
<!-- 7 -->
<g id="node8" class="node">
<title>7</title>
<path fill="none" stroke="#59d856" stroke-width="2" d="M83.5,-567C83.5,-567 38.5,-567 38.5,-567 32.5,-567 26.5,-561 26.5,-555 26.5,-555 26.5,-543 26.5,-543 26.5,-537 32.5,-531 38.5,-531 38.5,-531 83.5,-531 83.5,-531 89.5,-531 95.5,-537 95.5,-543 95.5,-543 95.5,-555 95.5,-555 95.5,-561 89.5,-567 83.5,-567"/>
<text text-anchor="middle" x="61" y="-546.5" font-family="sans" font-size="10.00">merge_align</text>
</g>
<!-- 7&#45;&gt;2 -->
<g id="edge6" class="edge">
<title>7&#45;&gt;2</title>
<path fill="none" stroke="grey" stroke-width="2" d="M53.31,-530.91C42.21,-504.62 23,-452.45 23,-406 23,-406 23,-406 23,-332 23,-290.4 32.76,-279.89 52,-243 57.04,-233.34 63.81,-223.59 70.34,-215.13"/>
<polygon fill="grey" stroke="grey" stroke-width="2" points="73.21,-217.15 76.73,-207.16 67.75,-212.78 73.21,-217.15"/>
</g>
<!-- 7&#45;&gt;3 -->
<g id="edge8" class="edge">
<title>7&#45;&gt;3</title>
<path fill="none" stroke="grey" stroke-width="2" d="M61.57,-530.95C63.03,-492.31 67.71,-395.24 80,-315 81.31,-306.48 83.21,-297.28 85.12,-288.98"/>
<polygon fill="grey" stroke="grey" stroke-width="2" points="88.57,-289.61 87.49,-279.07 81.76,-287.98 88.57,-289.61"/>
</g>
<!-- 7&#45;&gt;6 -->
<g id="edge13" class="edge">
<title>7&#45;&gt;6</title>
<path fill="none" stroke="grey" stroke-width="2" d="M81.27,-530.7C91.5,-521.97 104.06,-511.24 115.18,-501.75"/>
<polygon fill="grey" stroke="grey" stroke-width="2" points="117.63,-504.26 122.96,-495.1 113.09,-498.94 117.63,-504.26"/>
</g>
<!-- 8 -->
<g id="node9" class="node">
<title>8</title>
<path fill="none" stroke="#56c9d8" stroke-width="2" d="M110,-639C110,-639 12,-639 12,-639 6,-639 0,-633 0,-627 0,-627 0,-615 0,-615 0,-609 6,-603 12,-603 12,-603 110,-603 110,-603 116,-603 122,-609 122,-615 122,-615 122,-627 122,-627 122,-633 116,-639 110,-639"/>
<text text-anchor="middle" x="61" y="-618.5" font-family="sans" font-size="10.00">link_meth_tags_non_trio</text>
</g>
<!-- 8&#45;&gt;7 -->
<g id="edge14" class="edge">
<title>8&#45;&gt;7</title>
<path fill="none" stroke="grey" stroke-width="2" d="M61,-602.7C61,-594.98 61,-585.71 61,-577.11"/>
<polygon fill="grey" stroke="grey" stroke-width="2" points="64.5,-577.1 61,-567.1 57.5,-577.1 64.5,-577.1"/>
</g>
<!-- 9 -->
<g id="node10" class="node">
<title>9</title>
<path fill="none" stroke="#68d856" stroke-width="2" d="M76,-711C76,-711 46,-711 46,-711 40,-711 34,-705 34,-699 34,-699 34,-687 34,-687 34,-681 40,-675 46,-675 46,-675 76,-675 76,-675 82,-675 88,-681 88,-687 88,-687 88,-699 88,-699 88,-705 82,-711 76,-711"/>
<text text-anchor="middle" x="61" y="-690.5" font-family="sans" font-size="10.00">align</text>
</g>
<!-- 9&#45;&gt;8 -->
<g id="edge15" class="edge">
<title>9&#45;&gt;8</title>
<path fill="none" stroke="grey" stroke-width="2" d="M61,-674.7C61,-666.98 61,-657.71 61,-649.11"/>
<polygon fill="grey" stroke="grey" stroke-width="2" points="64.5,-649.1 61,-639.1 57.5,-649.1 64.5,-649.1"/>
</g>
<!-- 10&#45;&gt;4 -->
<g id="edge11" class="edge">
<title>10&#45;&gt;4</title>
<path fill="none" stroke="grey" stroke-width="2" d="M174.4,-386.7C167.88,-378.39 159.93,-368.28 152.75,-359.14"/>
<polygon fill="grey" stroke="grey" stroke-width="2" points="155.37,-356.81 146.44,-351.1 149.87,-361.13 155.37,-356.81"/>
</g>
<!-- 11 -->
<g id="node12" class="node">
<title>11</title>
<path fill="none" stroke="#d88556" stroke-width="2" d="M290.5,-135C290.5,-135 243.5,-135 243.5,-135 237.5,-135 231.5,-129 231.5,-123 231.5,-123 231.5,-84 231.5,-84 231.5,-78 237.5,-72 243.5,-72 243.5,-72 290.5,-72 290.5,-72 296.5,-72 302.5,-78 302.5,-84 302.5,-84 302.5,-123 302.5,-123 302.5,-129 296.5,-135 290.5,-135"/>
<text text-anchor="middle" x="267" y="-123" font-family="sans" font-size="10.00">modkit_trio</text>
<text text-anchor="middle" x="267" y="-112" font-family="sans" font-size="10.00">tech=ont</text>
<text text-anchor="middle" x="267" y="-101" font-family="sans" font-size="10.00">&#45;&#45;&#45;</text>
<text text-anchor="middle" x="267" y="-90" font-family="sans" font-size="10.00">call_cpg_hifi</text>
<text text-anchor="middle" x="267" y="-79" font-family="sans" font-size="10.00">tech=hifi</text>
</g>
<!-- 11&#45;&gt;0 -->
<g id="edge3" class="edge">
<title>11&#45;&gt;0</title>
<path fill="none" stroke="grey" stroke-width="2" d="M231.46,-72.83C219.63,-62.94 206.61,-52.07 195.39,-42.7"/>
<polygon fill="grey" stroke="grey" stroke-width="2" points="197.5,-39.91 187.58,-36.18 193.01,-45.28 197.5,-39.91"/>
</g>
<!-- 12 -->
<g id="node13" class="node">
<title>12</title>
<path fill="none" stroke="#5682d8" stroke-width="2" d="M312,-279C312,-279 222,-279 222,-279 216,-279 210,-273 210,-267 210,-267 210,-255 210,-255 210,-249 216,-243 222,-243 222,-243 312,-243 312,-243 318,-243 324,-249 324,-255 324,-255 324,-267 324,-267 324,-273 318,-279 312,-279"/>
<text text-anchor="middle" x="267" y="-258.5" font-family="sans" font-size="10.00">combine_bam_by_hap</text>
</g>
<!-- 12&#45;&gt;11 -->
<g id="edge17" class="edge">
<title>12&#45;&gt;11</title>
<path fill="none" stroke="grey" stroke-width="2" d="M267,-242.76C267,-219.46 267,-177.18 267,-145.49"/>
<polygon fill="grey" stroke="grey" stroke-width="2" points="270.5,-145.19 267,-135.19 263.5,-145.19 270.5,-145.19"/>
</g>
<!-- 20 -->
<g id="node21" class="node">
<title>20</title>
<path fill="none" stroke="#d87556" stroke-width="2" d="M223,-207C223,-207 153,-207 153,-207 147,-207 141,-201 141,-195 141,-195 141,-183 141,-183 141,-177 147,-171 153,-171 153,-171 223,-171 223,-171 229,-171 235,-177 235,-183 235,-183 235,-195 235,-195 235,-201 229,-207 223,-207"/>
<text text-anchor="middle" x="188" y="-186.5" font-family="sans" font-size="10.00">merge_hap_bams</text>
</g>
<!-- 12&#45;&gt;20 -->
<g id="edge26" class="edge">
<title>12&#45;&gt;20</title>
<path fill="none" stroke="grey" stroke-width="2" d="M247.47,-242.7C237.62,-233.97 225.51,-223.24 214.8,-213.75"/>
<polygon fill="grey" stroke="grey" stroke-width="2" points="217.11,-211.12 207.3,-207.1 212.47,-216.36 217.11,-211.12"/>
</g>
<!-- 13 -->
<g id="node14" class="node">
<title>13</title>
<path fill="none" stroke="#56d863" stroke-width="2" d="M315.5,-351C315.5,-351 256.5,-351 256.5,-351 250.5,-351 244.5,-345 244.5,-339 244.5,-339 244.5,-327 244.5,-327 244.5,-321 250.5,-315 256.5,-315 256.5,-315 315.5,-315 315.5,-315 321.5,-315 327.5,-321 327.5,-327 327.5,-327 327.5,-339 327.5,-339 327.5,-345 321.5,-351 315.5,-351"/>
<text text-anchor="middle" x="286" y="-330.5" font-family="sans" font-size="10.00">link_meth_tags</text>
</g>
<!-- 13&#45;&gt;12 -->
<g id="edge18" class="edge">
<title>13&#45;&gt;12</title>
<path fill="none" stroke="grey" stroke-width="2" d="M281.3,-314.7C279.19,-306.9 276.64,-297.51 274.28,-288.83"/>
<polygon fill="grey" stroke="grey" stroke-width="2" points="277.64,-287.84 271.64,-279.1 270.88,-289.67 277.64,-287.84"/>
</g>
<!-- 14 -->
<g id="node15" class="node">
<title>14</title>
<path fill="none" stroke="#5663d8" stroke-width="2" d="M347,-423C347,-423 245,-423 245,-423 239,-423 233,-417 233,-411 233,-411 233,-399 233,-399 233,-393 239,-387 245,-387 245,-387 347,-387 347,-387 353,-387 359,-393 359,-399 359,-399 359,-411 359,-411 359,-417 353,-423 347,-423"/>
<text text-anchor="middle" x="296" y="-402.5" font-family="sans" font-size="10.00">align_hap_specific_reads</text>
</g>
<!-- 14&#45;&gt;13 -->
<g id="edge19" class="edge">
<title>14&#45;&gt;13</title>
<path fill="none" stroke="grey" stroke-width="2" d="M293.53,-386.7C292.43,-378.98 291.1,-369.71 289.87,-361.11"/>
<polygon fill="grey" stroke="grey" stroke-width="2" points="293.32,-360.51 288.44,-351.1 286.39,-361.5 293.32,-360.51"/>
</g>
<!-- 15 -->
<g id="node16" class="node">
<title>15</title>
<path fill="none" stroke="#56a2d8" stroke-width="2" d="M361.5,-495C361.5,-495 230.5,-495 230.5,-495 224.5,-495 218.5,-489 218.5,-483 218.5,-483 218.5,-471 218.5,-471 218.5,-465 224.5,-459 230.5,-459 230.5,-459 361.5,-459 361.5,-459 367.5,-459 373.5,-465 373.5,-471 373.5,-471 373.5,-483 373.5,-483 373.5,-489 367.5,-495 361.5,-495"/>
<text text-anchor="middle" x="296" y="-474.5" font-family="sans" font-size="10.00">correspond_fastq_reads_to_hap</text>
</g>
<!-- 15&#45;&gt;14 -->
<g id="edge20" class="edge">
<title>15&#45;&gt;14</title>
<path fill="none" stroke="grey" stroke-width="2" d="M296,-458.7C296,-450.98 296,-441.71 296,-433.11"/>
<polygon fill="grey" stroke="grey" stroke-width="2" points="299.5,-433.1 296,-423.1 292.5,-433.1 299.5,-433.1"/>
</g>
<!-- 16 -->
<g id="node17" class="node">
<title>16</title>
<path fill="none" stroke="#d6d856" stroke-width="2" d="M332.5,-567C332.5,-567 259.5,-567 259.5,-567 253.5,-567 247.5,-561 247.5,-555 247.5,-555 247.5,-543 247.5,-543 247.5,-537 253.5,-531 259.5,-531 259.5,-531 332.5,-531 332.5,-531 338.5,-531 344.5,-537 344.5,-543 344.5,-543 344.5,-555 344.5,-555 344.5,-561 338.5,-567 332.5,-567"/>
<text text-anchor="middle" x="296" y="-546.5" font-family="sans" font-size="10.00">extract_hap_reads</text>
</g>
<!-- 16&#45;&gt;15 -->
<g id="edge21" class="edge">
<title>16&#45;&gt;15</title>
<path fill="none" stroke="grey" stroke-width="2" d="M296,-530.7C296,-522.98 296,-513.71 296,-505.11"/>
<polygon fill="grey" stroke="grey" stroke-width="2" points="299.5,-505.1 296,-495.1 292.5,-505.1 299.5,-505.1"/>
</g>
<!-- 17 -->
<g id="node18" class="node">
<title>17</title>
<path fill="none" stroke="#80d856" stroke-width="2" d="M277.5,-639C277.5,-639 234.5,-639 234.5,-639 228.5,-639 222.5,-633 222.5,-627 222.5,-627 222.5,-615 222.5,-615 222.5,-609 228.5,-603 234.5,-603 234.5,-603 277.5,-603 277.5,-603 283.5,-603 289.5,-609 289.5,-615 289.5,-615 289.5,-627 289.5,-627 289.5,-633 283.5,-639 277.5,-639"/>
<text text-anchor="middle" x="256" y="-624" font-family="sans" font-size="10.00">hifiasm_trio</text>
<text text-anchor="middle" x="256" y="-613" font-family="sans" font-size="10.00">tech=hifi</text>
</g>
<!-- 17&#45;&gt;16 -->
<g id="edge23" class="edge">
<title>17&#45;&gt;16</title>
<path fill="none" stroke="grey" stroke-width="2" d="M265.89,-602.7C270.49,-594.64 276.06,-584.89 281.15,-575.98"/>
<polygon fill="grey" stroke="grey" stroke-width="2" points="284.3,-577.52 286.23,-567.1 278.23,-574.05 284.3,-577.52"/>
</g>
<!-- 18 -->
<g id="node19" class="node">
<title>18</title>
<path fill="none" stroke="#8fd856" stroke-width="2" d="M234,-711C234,-711 188,-711 188,-711 182,-711 176,-705 176,-699 176,-699 176,-687 176,-687 176,-681 182,-675 188,-675 188,-675 234,-675 234,-675 240,-675 246,-681 246,-687 246,-687 246,-699 246,-699 246,-705 240,-711 234,-711"/>
<text text-anchor="middle" x="211" y="-696" font-family="sans" font-size="10.00">yak_parents</text>
<text text-anchor="middle" x="211" y="-685" font-family="sans" font-size="10.00">tech=hifi</text>
</g>
<!-- 18&#45;&gt;17 -->
<g id="edge25" class="edge">
<title>18&#45;&gt;17</title>
<path fill="none" stroke="grey" stroke-width="2" d="M222.12,-674.7C227.36,-666.56 233.7,-656.69 239.48,-647.7"/>
<polygon fill="grey" stroke="grey" stroke-width="2" points="242.54,-649.41 245,-639.1 236.65,-645.62 242.54,-649.41"/>
</g>
<!-- 19 -->
<g id="node20" class="node">
<title>19</title>
<path fill="none" stroke="#5692d8" stroke-width="2" d="M323.5,-711C323.5,-711 276.5,-711 276.5,-711 270.5,-711 264.5,-705 264.5,-699 264.5,-699 264.5,-687 264.5,-687 264.5,-681 270.5,-675 276.5,-675 276.5,-675 323.5,-675 323.5,-675 329.5,-675 335.5,-681 335.5,-687 335.5,-687 335.5,-699 335.5,-699 335.5,-705 329.5,-711 323.5,-711"/>
<text text-anchor="middle" x="300" y="-696" font-family="sans" font-size="10.00">hifiasm_dual</text>
<text text-anchor="middle" x="300" y="-685" font-family="sans" font-size="10.00">tech=hifi</text>
</g>
<!-- 19&#45;&gt;17 -->
<g id="edge24" class="edge">
<title>19&#45;&gt;17</title>
<path fill="none" stroke="grey" stroke-width="2" d="M289.12,-674.7C284.01,-666.56 277.8,-656.69 272.16,-647.7"/>
<polygon fill="grey" stroke="grey" stroke-width="2" points="275.04,-645.71 266.75,-639.1 269.11,-649.43 275.04,-645.71"/>
</g>
<!-- 20&#45;&gt;1 -->
<g id="edge4" class="edge">
<title>20&#45;&gt;1</title>
<path fill="none" stroke="grey" stroke-width="2" d="M183.65,-170.7C181.76,-163.19 179.46,-154.06 177.19,-145"/>
<polygon fill="grey" stroke="grey" stroke-width="2" points="180.58,-144.13 174.74,-135.28 173.79,-145.83 180.58,-144.13"/>
</g>
<!-- 21 -->
<g id="node22" class="node">
<title>21</title>
<path fill="none" stroke="#80d856" stroke-width="2" d="M352,-639C352,-639 320,-639 320,-639 314,-639 308,-633 308,-627 308,-627 308,-615 308,-615 308,-609 314,-603 320,-603 320,-603 352,-603 352,-603 358,-603 364,-609 364,-615 364,-615 364,-627 364,-627 364,-633 358,-639 352,-639"/>
<text text-anchor="middle" x="336" y="-624" font-family="sans" font-size="10.00">canu_trio</text>
<text text-anchor="middle" x="336" y="-613" font-family="sans" font-size="10.00">tech=ont</text>
</g>
<!-- 21&#45;&gt;16 -->
<g id="edge22" class="edge">
<title>21&#45;&gt;16</title>
<path fill="none" stroke="grey" stroke-width="2" d="M326.11,-602.7C321.51,-594.64 315.94,-584.89 310.85,-575.98"/>
<polygon fill="grey" stroke="grey" stroke-width="2" points="313.77,-574.05 305.77,-567.1 307.7,-577.52 313.77,-574.05"/>
</g>
</g>
</svg>
