<?xml version="1.0" encoding="UTF-8" standalone="no"?>
<!DOCTYPE svg PUBLIC "-//W3C//DTD SVG 1.1//EN"
 "http://www.w3.org/Graphics/SVG/1.1/DTD/svg11.dtd">
<!-- Generated by graphviz version 2.30.1 (20201013.1554)
 -->
<!-- Title: snakemake_dag Pages: 1 -->
<svg width="436pt" height="1196pt"
 viewBox="0.00 0.00 436.00 1196.00" xmlns="http://www.w3.org/2000/svg" xmlns:xlink="http://www.w3.org/1999/xlink">
<g id="graph0" class="graph" transform="scale(1 1) rotate(0) translate(4 1192)">
<title>snakemake_dag</title>
<polygon fill="white" stroke="white" points="-4,5 -4,-1192 433,-1192 433,5 -4,5"/>
<!-- 0 -->
<g id="node1" class="node"><title>0</title>
<path fill="none" stroke="#56d882" stroke-width="2" d="M175,-36C175,-36 145,-36 145,-36 139,-36 133,-30 133,-24 133,-24 133,-12 133,-12 133,-6 139,-0 145,-0 145,-0 175,-0 175,-0 181,-0 187,-6 187,-12 187,-12 187,-24 187,-24 187,-30 181,-36 175,-36"/>
<text text-anchor="middle" x="160" y="-15.5" font-family="sans" font-size="10.00">all</text>
</g>
<!-- 1 -->
<g id="node2" class="node"><title>1</title>
<path fill="none" stroke="#5682d8" stroke-width="2" d="M240.25,-108C240.25,-108 187.75,-108 187.75,-108 181.75,-108 175.75,-102 175.75,-96 175.75,-96 175.75,-84 175.75,-84 175.75,-78 181.75,-72 187.75,-72 187.75,-72 240.25,-72 240.25,-72 246.25,-72 252.25,-78 252.25,-84 252.25,-84 252.25,-96 252.25,-96 252.25,-102 246.25,-108 240.25,-108"/>
<text text-anchor="middle" x="214" y="-87.5" font-family="sans" font-size="10.00">call_cpg_hifi</text>
</g>
<!-- 1&#45;&gt;0 -->
<g id="edge2" class="edge"><title>1&#45;&gt;0</title>
<path fill="none" stroke="grey" stroke-width="2" d="M200.652,-71.6966C194.243,-63.3893 186.442,-53.2771 179.394,-44.1407"/>
<polygon fill="grey" stroke="grey" points="182.074,-41.8844 173.195,-36.1043 176.532,-46.16 182.074,-41.8844"/>
</g>
<!-- 2 -->
<g id="node3" class="node"><title>2</title>
<path fill="none" stroke="#56d89a" stroke-width="2" d="M305.25,-252C305.25,-252 270.75,-252 270.75,-252 264.75,-252 258.75,-246 258.75,-240 258.75,-240 258.75,-228 258.75,-228 258.75,-222 264.75,-216 270.75,-216 270.75,-216 305.25,-216 305.25,-216 311.25,-216 317.25,-222 317.25,-228 317.25,-228 317.25,-240 317.25,-240 317.25,-246 311.25,-252 305.25,-252"/>
<text text-anchor="middle" x="288" y="-231.5" font-family="sans" font-size="10.00">haplotag</text>
</g>
<!-- 2&#45;&gt;1 -->
<g id="edge3" class="edge"><title>2&#45;&gt;1</title>
<path fill="none" stroke="grey" stroke-width="2" d="M264.469,-215.796C253.296,-206.425 240.728,-193.91 233,-180 222.416,-160.95 217.722,-136.592 215.643,-118.176"/>
<polygon fill="grey" stroke="grey" points="219.117,-117.733 214.696,-108.104 212.147,-118.388 219.117,-117.733"/>
</g>
<!-- 12 -->
<g id="node13" class="node"><title>12</title>
<path fill="none" stroke="#d89c56" stroke-width="2" d="M322,-180C322,-180 254,-180 254,-180 248,-180 242,-174 242,-168 242,-168 242,-156 242,-156 242,-150 248,-144 254,-144 254,-144 322,-144 322,-144 328,-144 334,-150 334,-156 334,-156 334,-168 334,-168 334,-174 328,-180 322,-180"/>
<text text-anchor="middle" x="288" y="-159.5" font-family="sans" font-size="10.00">index_haplotag</text>
</g>
<!-- 2&#45;&gt;12 -->
<g id="edge24" class="edge"><title>2&#45;&gt;12</title>
<path fill="none" stroke="grey" stroke-width="2" d="M288,-215.697C288,-207.983 288,-198.712 288,-190.112"/>
<polygon fill="grey" stroke="grey" points="291.5,-190.104 288,-180.104 284.5,-190.104 291.5,-190.104"/>
</g>
<!-- 3 -->
<g id="node4" class="node"><title>3</title>
<path fill="none" stroke="#d85656" stroke-width="2" d="M253.25,-324C253.25,-324 210.75,-324 210.75,-324 204.75,-324 198.75,-318 198.75,-312 198.75,-312 198.75,-300 198.75,-300 198.75,-294 204.75,-288 210.75,-288 210.75,-288 253.25,-288 253.25,-288 259.25,-288 265.25,-294 265.25,-300 265.25,-300 265.25,-312 265.25,-312 265.25,-318 259.25,-324 253.25,-324"/>
<text text-anchor="middle" x="232" y="-303.5" font-family="sans" font-size="10.00">longphase</text>
</g>
<!-- 3&#45;&gt;2 -->
<g id="edge9" class="edge"><title>3&#45;&gt;2</title>
<path fill="none" stroke="grey" stroke-width="2" d="M245.843,-287.697C252.489,-279.389 260.578,-269.277 267.887,-260.141"/>
<polygon fill="grey" stroke="grey" points="270.803,-262.099 274.317,-252.104 265.336,-257.727 270.803,-262.099"/>
</g>
<!-- 4 -->
<g id="node5" class="node"><title>4</title>
<path fill="none" stroke="#d86e56" stroke-width="2" d="M126,-396C126,-396 54,-396 54,-396 48,-396 42,-390 42,-384 42,-384 42,-372 42,-372 42,-366 48,-360 54,-360 54,-360 126,-360 126,-360 132,-360 138,-366 138,-372 138,-372 138,-384 138,-384 138,-390 132,-396 126,-396"/>
<text text-anchor="middle" x="90" y="-375.5" font-family="sans" font-size="10.00">merge_chr_calls</text>
</g>
<!-- 4&#45;&gt;3 -->
<g id="edge10" class="edge"><title>4&#45;&gt;3</title>
<path fill="none" stroke="grey" stroke-width="2" d="M124.737,-359.876C144.247,-350.259 168.749,-338.18 189.409,-327.995"/>
<polygon fill="grey" stroke="grey" points="191.178,-331.026 198.599,-323.465 188.082,-324.747 191.178,-331.026"/>
</g>
<!-- 20 -->
<g id="node21" class="node"><title>20</title>
<path fill="none" stroke="#b6d856" stroke-width="2" d="M130,-252C130,-252 30,-252 30,-252 24,-252 18,-246 18,-240 18,-240 18,-228 18,-228 18,-222 24,-216 30,-216 30,-216 130,-216 130,-216 136,-216 142,-222 142,-228 142,-228 142,-240 142,-240 142,-246 136,-252 130,-252"/>
<text text-anchor="middle" x="80" y="-231.5" font-family="sans" font-size="10.00">remove_vc_unwanted</text>
</g>
<!-- 4&#45;&gt;20 -->
<g id="edge32" class="edge"><title>4&#45;&gt;20</title>
<path fill="none" stroke="grey" stroke-width="2" d="M88.7938,-359.871C87.0895,-335.67 83.9585,-291.211 81.9291,-262.393"/>
<polygon fill="grey" stroke="grey" points="85.4044,-261.919 81.2105,-252.189 78.4217,-262.41 85.4044,-261.919"/>
</g>
<!-- 5 -->
<g id="node6" class="node"><title>5</title>
<path fill="none" stroke="#70d856" stroke-width="2" d="M42,-468C42,-468 12,-468 12,-468 6,-468 0,-462 0,-456 0,-456 0,-444 0,-444 0,-438 6,-432 12,-432 12,-432 42,-432 42,-432 48,-432 54,-438 54,-444 54,-444 54,-456 54,-456 54,-462 48,-468 42,-468"/>
<text text-anchor="middle" x="27" y="-447.5" font-family="sans" font-size="10.00">clair3</text>
</g>
<!-- 5&#45;&gt;4 -->
<g id="edge13" class="edge"><title>5&#45;&gt;4</title>
<path fill="none" stroke="grey" stroke-width="2" d="M42.573,-431.697C50.2022,-423.22 59.5228,-412.864 67.8757,-403.583"/>
<polygon fill="grey" stroke="grey" points="70.518,-405.879 74.6061,-396.104 65.3149,-401.196 70.518,-405.879"/>
</g>
<!-- 6 -->
<g id="node7" class="node"><title>6</title>
<path fill="none" stroke="#d8b456" stroke-width="2" d="M130,-540C130,-540 36,-540 36,-540 30,-540 24,-534 24,-528 24,-528 24,-516 24,-516 24,-510 30,-504 36,-504 36,-504 130,-504 130,-504 136,-504 142,-510 142,-516 142,-516 142,-528 142,-528 142,-534 136,-540 130,-540"/>
<text text-anchor="middle" x="83" y="-519.5" font-family="sans" font-size="10.00">split_bam_by_chrom</text>
</g>
<!-- 6&#45;&gt;5 -->
<g id="edge15" class="edge"><title>6&#45;&gt;5</title>
<path fill="none" stroke="grey" stroke-width="2" d="M69.1573,-503.697C62.5115,-495.389 54.4216,-485.277 47.1126,-476.141"/>
<polygon fill="grey" stroke="grey" points="49.6635,-473.727 40.6835,-468.104 44.1974,-478.099 49.6635,-473.727"/>
</g>
<!-- 11 -->
<g id="node12" class="node"><title>11</title>
<path fill="none" stroke="#56c9d8" stroke-width="2" d="M114,-468C114,-468 84,-468 84,-468 78,-468 72,-462 72,-456 72,-456 72,-444 72,-444 72,-438 78,-432 84,-432 84,-432 114,-432 114,-432 120,-432 126,-438 126,-444 126,-444 126,-456 126,-456 126,-462 120,-468 114,-468"/>
<text text-anchor="middle" x="99" y="-447.5" font-family="sans" font-size="10.00">sniffles</text>
</g>
<!-- 6&#45;&gt;11 -->
<g id="edge23" class="edge"><title>6&#45;&gt;11</title>
<path fill="none" stroke="grey" stroke-width="2" d="M86.9551,-503.697C88.7182,-495.983 90.8372,-486.712 92.8029,-478.112"/>
<polygon fill="grey" stroke="grey" points="96.2741,-478.633 95.0904,-468.104 89.4501,-477.073 96.2741,-478.633"/>
</g>
<!-- 7 -->
<g id="node8" class="node"><title>7</title>
<path fill="none" stroke="#569ad8" stroke-width="2" d="M320.25,-684C320.25,-684 267.75,-684 267.75,-684 261.75,-684 255.75,-678 255.75,-672 255.75,-672 255.75,-660 255.75,-660 255.75,-654 261.75,-648 267.75,-648 267.75,-648 320.25,-648 320.25,-648 326.25,-648 332.25,-654 332.25,-660 332.25,-660 332.25,-672 332.25,-672 332.25,-678 326.25,-684 320.25,-684"/>
<text text-anchor="middle" x="294" y="-663.5" font-family="sans" font-size="10.00">merge_align</text>
</g>
<!-- 7&#45;&gt;1 -->
<g id="edge5" class="edge"><title>7&#45;&gt;1</title>
<path fill="none" stroke="grey" stroke-width="2" d="M310.491,-647.772C332.843,-622.534 370,-573.051 370,-523 370,-523 370,-523 370,-233 370,-191.664 370.804,-174.588 343,-144 321.968,-120.862 289.328,-107.581 262.144,-100.1"/>
<polygon fill="grey" stroke="grey" points="262.963,-96.6974 252.407,-97.5992 261.222,-103.477 262.963,-96.6974"/>
</g>
<!-- 7&#45;&gt;2 -->
<g id="edge7" class="edge"><title>7&#45;&gt;2</title>
<path fill="none" stroke="grey" stroke-width="2" d="M301.69,-647.907C312.794,-621.623 332,-569.447 332,-523 332,-523 332,-523 332,-377 332,-335.212 314.4,-289.482 301.462,-261.511"/>
<polygon fill="grey" stroke="grey" points="304.579,-259.915 297.117,-252.394 298.26,-262.927 304.579,-259.915"/>
</g>
<!-- 7&#45;&gt;3 -->
<g id="edge11" class="edge"><title>7&#45;&gt;3</title>
<path fill="none" stroke="grey" stroke-width="2" d="M294,-647.951C294,-621.292 294,-568.115 294,-523 294,-523 294,-523 294,-449 294,-405.497 269.258,-360.29 251.034,-332.892"/>
<polygon fill="grey" stroke="grey" points="253.691,-330.579 245.149,-324.312 247.919,-334.538 253.691,-330.579"/>
</g>
<!-- 7&#45;&gt;6 -->
<g id="edge16" class="edge"><title>7&#45;&gt;6</title>
<path fill="none" stroke="grey" stroke-width="2" d="M255.65,-657.803C224.064,-650.408 179.368,-636.438 147,-612 124.841,-595.269 107.152,-568.702 96.0357,-548.944"/>
<polygon fill="grey" stroke="grey" points="99.102,-547.256 91.257,-540.135 92.9491,-550.594 99.102,-547.256"/>
</g>
<!-- 10 -->
<g id="node11" class="node"><title>10</title>
<path fill="none" stroke="#59d856" stroke-width="2" d="M254,-612C254,-612 168,-612 168,-612 162,-612 156,-606 156,-600 156,-600 156,-588 156,-588 156,-582 162,-576 168,-576 168,-576 254,-576 254,-576 260,-576 266,-582 266,-588 266,-588 266,-600 266,-600 266,-606 260,-612 254,-612"/>
<text text-anchor="middle" x="211" y="-591.5" font-family="sans" font-size="10.00">index_merge_align</text>
</g>
<!-- 7&#45;&gt;10 -->
<g id="edge22" class="edge"><title>7&#45;&gt;10</title>
<path fill="none" stroke="grey" stroke-width="2" d="M273.483,-647.697C263.131,-638.965 250.414,-628.24 239.161,-618.75"/>
<polygon fill="grey" stroke="grey" points="241.182,-615.876 231.281,-612.104 236.669,-621.227 241.182,-615.876"/>
</g>
<!-- 8 -->
<g id="node9" class="node"><title>8</title>
<path fill="none" stroke="#56b1d8" stroke-width="2" d="M328,-828C328,-828 260,-828 260,-828 254,-828 248,-822 248,-816 248,-816 248,-804 248,-804 248,-798 254,-792 260,-792 260,-792 328,-792 328,-792 334,-792 340,-798 340,-804 340,-804 340,-816 340,-816 340,-822 334,-828 328,-828"/>
<text text-anchor="middle" x="294" y="-807.5" font-family="sans" font-size="10.00">link_meth_tags</text>
</g>
<!-- 8&#45;&gt;7 -->
<g id="edge19" class="edge"><title>8&#45;&gt;7</title>
<path fill="none" stroke="grey" stroke-width="2" d="M287.762,-791.593C284.433,-781.374 280.683,-768.124 279,-756 276.801,-740.152 276.801,-735.848 279,-720 280.183,-711.475 282.388,-702.394 284.751,-694.201"/>
<polygon fill="grey" stroke="grey" points="288.168,-694.994 287.762,-684.407 281.478,-692.937 288.168,-694.994"/>
</g>
<!-- 13 -->
<g id="node14" class="node"><title>13</title>
<path fill="none" stroke="#9fd856" stroke-width="2" d="M357.25,-756C357.25,-756 300.75,-756 300.75,-756 294.75,-756 288.75,-750 288.75,-744 288.75,-744 288.75,-732 288.75,-732 288.75,-726 294.75,-720 300.75,-720 300.75,-720 357.25,-720 357.25,-720 363.25,-720 369.25,-726 369.25,-732 369.25,-732 369.25,-744 369.25,-744 369.25,-750 363.25,-756 357.25,-756"/>
<text text-anchor="middle" x="329" y="-735.5" font-family="sans" font-size="10.00">haplotag_trio</text>
</g>
<!-- 8&#45;&gt;13 -->
<g id="edge25" class="edge"><title>8&#45;&gt;13</title>
<path fill="none" stroke="grey" stroke-width="2" d="M302.652,-791.697C306.636,-783.728 311.45,-774.1 315.868,-765.264"/>
<polygon fill="grey" stroke="grey" points="319.106,-766.614 320.448,-756.104 312.845,-763.483 319.106,-766.614"/>
</g>
<!-- 9 -->
<g id="node10" class="node"><title>9</title>
<path fill="none" stroke="#56d8c9" stroke-width="2" d="M309,-900C309,-900 279,-900 279,-900 273,-900 267,-894 267,-888 267,-888 267,-876 267,-876 267,-870 273,-864 279,-864 279,-864 309,-864 309,-864 315,-864 321,-870 321,-876 321,-876 321,-888 321,-888 321,-894 315,-900 309,-900"/>
<text text-anchor="middle" x="294" y="-879.5" font-family="sans" font-size="10.00">align</text>
</g>
<!-- 9&#45;&gt;8 -->
<g id="edge20" class="edge"><title>9&#45;&gt;8</title>
<path fill="none" stroke="grey" stroke-width="2" d="M294,-863.697C294,-855.983 294,-846.712 294,-838.112"/>
<polygon fill="grey" stroke="grey" points="297.5,-838.104 294,-828.104 290.5,-838.104 297.5,-838.104"/>
</g>
<!-- 10&#45;&gt;1 -->
<g id="edge6" class="edge"><title>10&#45;&gt;1</title>
<path fill="none" stroke="grey" stroke-width="2" d="M202.703,-575.971C190.723,-549.77 170,-497.701 170,-451 170,-451 170,-451 170,-233 170,-191.212 187.6,-145.482 200.538,-117.511"/>
<polygon fill="grey" stroke="grey" points="203.74,-118.927 204.883,-108.394 197.421,-115.915 203.74,-118.927"/>
</g>
<!-- 10&#45;&gt;2 -->
<g id="edge8" class="edge"><title>10&#45;&gt;2</title>
<path fill="none" stroke="grey" stroke-width="2" d="M218.403,-575.577C222.537,-565.353 227.537,-552.103 231,-540 257.926,-445.892 256.836,-420.367 274,-324 277.68,-303.341 281.347,-279.893 284.005,-262.253"/>
<polygon fill="grey" stroke="grey" points="287.507,-262.503 285.521,-252.096 280.583,-261.47 287.507,-262.503"/>
</g>
<!-- 10&#45;&gt;3 -->
<g id="edge12" class="edge"><title>10&#45;&gt;3</title>
<path fill="none" stroke="grey" stroke-width="2" d="M212.251,-575.966C215.751,-528.291 225.672,-393.185 229.971,-334.63"/>
<polygon fill="grey" stroke="grey" points="233.487,-334.536 230.729,-324.306 226.506,-334.023 233.487,-334.536"/>
</g>
<!-- 10&#45;&gt;6 -->
<g id="edge17" class="edge"><title>10&#45;&gt;6</title>
<path fill="none" stroke="grey" stroke-width="2" d="M179.688,-575.876C162.797,-566.639 141.753,-555.131 123.615,-545.212"/>
<polygon fill="grey" stroke="grey" points="124.886,-541.917 114.433,-540.19 121.527,-548.059 124.886,-541.917"/>
</g>
<!-- 11&#45;&gt;4 -->
<g id="edge14" class="edge"><title>11&#45;&gt;4</title>
<path fill="none" stroke="grey" stroke-width="2" d="M96.7753,-431.697C95.7835,-423.983 94.5916,-414.712 93.4859,-406.112"/>
<polygon fill="grey" stroke="grey" points="96.9459,-405.576 92.1991,-396.104 90.003,-406.469 96.9459,-405.576"/>
</g>
<!-- 12&#45;&gt;1 -->
<g id="edge4" class="edge"><title>12&#45;&gt;1</title>
<path fill="none" stroke="grey" stroke-width="2" d="M269.708,-143.697C260.567,-135.05 249.36,-124.449 239.4,-115.027"/>
<polygon fill="grey" stroke="grey" points="241.752,-112.434 232.082,-108.104 236.941,-117.519 241.752,-112.434"/>
</g>
<!-- 13&#45;&gt;7 -->
<g id="edge18" class="edge"><title>13&#45;&gt;7</title>
<path fill="none" stroke="grey" stroke-width="2" d="M320.348,-719.697C316.364,-711.728 311.55,-702.1 307.132,-693.264"/>
<polygon fill="grey" stroke="grey" points="310.155,-691.483 302.552,-684.104 303.894,-694.614 310.155,-691.483"/>
</g>
<!-- 14 -->
<g id="node15" class="node"><title>14</title>
<path fill="none" stroke="#d88556" stroke-width="2" d="M333.25,-972C333.25,-972 254.75,-972 254.75,-972 248.75,-972 242.75,-966 242.75,-960 242.75,-960 242.75,-948 242.75,-948 242.75,-942 248.75,-936 254.75,-936 254.75,-936 333.25,-936 333.25,-936 339.25,-936 345.25,-942 345.25,-948 345.25,-948 345.25,-960 345.25,-960 345.25,-966 339.25,-972 333.25,-972"/>
<text text-anchor="middle" x="294" y="-951.5" font-family="sans" font-size="10.00">correspond_reads</text>
</g>
<!-- 14&#45;&gt;9 -->
<g id="edge21" class="edge"><title>14&#45;&gt;9</title>
<path fill="none" stroke="grey" stroke-width="2" d="M294,-935.697C294,-927.983 294,-918.712 294,-910.112"/>
<polygon fill="grey" stroke="grey" points="297.5,-910.104 294,-900.104 290.5,-910.104 297.5,-910.104"/>
</g>
<!-- 15 -->
<g id="node16" class="node"><title>15</title>
<path fill="none" stroke="#88d856" stroke-width="2" d="M267.25,-1044C267.25,-1044 184.75,-1044 184.75,-1044 178.75,-1044 172.75,-1038 172.75,-1032 172.75,-1032 172.75,-1020 172.75,-1020 172.75,-1014 178.75,-1008 184.75,-1008 184.75,-1008 267.25,-1008 267.25,-1008 273.25,-1008 279.25,-1014 279.25,-1020 279.25,-1020 279.25,-1032 279.25,-1032 279.25,-1038 273.25,-1044 267.25,-1044"/>
<text text-anchor="middle" x="226" y="-1023.5" font-family="sans" font-size="10.00">extract_hap_reads</text>
</g>
<!-- 15&#45;&gt;14 -->
<g id="edge26" class="edge"><title>15&#45;&gt;14</title>
<path fill="none" stroke="grey" stroke-width="2" d="M242.809,-1007.7C251.126,-999.135 261.305,-988.656 270.39,-979.304"/>
<polygon fill="grey" stroke="grey" points="272.927,-981.716 277.384,-972.104 267.906,-976.838 272.927,-981.716"/>
</g>
<!-- 16 -->
<g id="node17" class="node"><title>16</title>
<path fill="none" stroke="#566bd8" stroke-width="2" d="M319,-1116C319,-1116 269,-1116 269,-1116 263,-1116 257,-1110 257,-1104 257,-1104 257,-1092 257,-1092 257,-1086 263,-1080 269,-1080 269,-1080 319,-1080 319,-1080 325,-1080 331,-1086 331,-1092 331,-1092 331,-1104 331,-1104 331,-1110 325,-1116 319,-1116"/>
<text text-anchor="middle" x="294" y="-1095.5" font-family="sans" font-size="10.00">hifiasm_trio</text>
</g>
<!-- 16&#45;&gt;15 -->
<g id="edge28" class="edge"><title>16&#45;&gt;15</title>
<path fill="none" stroke="grey" stroke-width="2" d="M277.191,-1079.7C268.874,-1071.14 258.695,-1060.66 249.61,-1051.3"/>
<polygon fill="grey" stroke="grey" points="252.094,-1048.84 242.616,-1044.1 247.073,-1053.72 252.094,-1048.84"/>
</g>
<!-- 19 -->
<g id="node20" class="node"><title>19</title>
<path fill="none" stroke="#56d8b1" stroke-width="2" d="M416,-1044C416,-1044 310,-1044 310,-1044 304,-1044 298,-1038 298,-1032 298,-1032 298,-1020 298,-1020 298,-1014 304,-1008 310,-1008 310,-1008 416,-1008 416,-1008 422,-1008 428,-1014 428,-1020 428,-1020 428,-1032 428,-1032 428,-1038 422,-1044 416,-1044"/>
<text text-anchor="middle" x="363" y="-1023.5" font-family="sans" font-size="10.00">extract_non_hap_reads</text>
</g>
<!-- 16&#45;&gt;19 -->
<g id="edge31" class="edge"><title>16&#45;&gt;19</title>
<path fill="none" stroke="grey" stroke-width="2" d="M311.056,-1079.7C319.495,-1071.14 329.825,-1060.66 339.043,-1051.3"/>
<polygon fill="grey" stroke="grey" points="341.613,-1053.68 346.14,-1044.1 336.627,-1048.77 341.613,-1053.68"/>
</g>
<!-- 17 -->
<g id="node18" class="node"><title>17</title>
<path fill="none" stroke="#56d86b" stroke-width="2" d="M272.25,-1188C272.25,-1188 219.75,-1188 219.75,-1188 213.75,-1188 207.75,-1182 207.75,-1176 207.75,-1176 207.75,-1164 207.75,-1164 207.75,-1158 213.75,-1152 219.75,-1152 219.75,-1152 272.25,-1152 272.25,-1152 278.25,-1152 284.25,-1158 284.25,-1164 284.25,-1164 284.25,-1176 284.25,-1176 284.25,-1182 278.25,-1188 272.25,-1188"/>
<text text-anchor="middle" x="246" y="-1167.5" font-family="sans" font-size="10.00">yak_parents</text>
</g>
<!-- 17&#45;&gt;16 -->
<g id="edge30" class="edge"><title>17&#45;&gt;16</title>
<path fill="none" stroke="grey" stroke-width="2" d="M257.865,-1151.7C263.503,-1143.47 270.354,-1133.48 276.569,-1124.42"/>
<polygon fill="grey" stroke="grey" points="279.503,-1126.33 282.271,-1116.1 273.729,-1122.37 279.503,-1126.33"/>
</g>
<!-- 18 -->
<g id="node19" class="node"><title>18</title>
<path fill="none" stroke="#ced856" stroke-width="2" d="M369.25,-1188C369.25,-1188 314.75,-1188 314.75,-1188 308.75,-1188 302.75,-1182 302.75,-1176 302.75,-1176 302.75,-1164 302.75,-1164 302.75,-1158 308.75,-1152 314.75,-1152 314.75,-1152 369.25,-1152 369.25,-1152 375.25,-1152 381.25,-1158 381.25,-1164 381.25,-1164 381.25,-1176 381.25,-1176 381.25,-1182 375.25,-1188 369.25,-1188"/>
<text text-anchor="middle" x="342" y="-1167.5" font-family="sans" font-size="10.00">hifiasm_dual</text>
</g>
<!-- 18&#45;&gt;16 -->
<g id="edge29" class="edge"><title>18&#45;&gt;16</title>
<path fill="none" stroke="grey" stroke-width="2" d="M330.135,-1151.7C324.497,-1143.47 317.646,-1133.48 311.431,-1124.42"/>
<polygon fill="grey" stroke="grey" points="314.271,-1122.37 305.729,-1116.1 308.497,-1126.33 314.271,-1122.37"/>
</g>
<!-- 19&#45;&gt;14 -->
<g id="edge27" class="edge"><title>19&#45;&gt;14</title>
<path fill="none" stroke="grey" stroke-width="2" d="M345.944,-1007.7C337.505,-999.135 327.175,-988.656 317.957,-979.304"/>
<polygon fill="grey" stroke="grey" points="320.373,-976.769 310.86,-972.104 315.387,-981.683 320.373,-976.769"/>
</g>
<!-- 20&#45;&gt;0 -->
<g id="edge1" class="edge"><title>20&#45;&gt;0</title>
<path fill="none" stroke="grey" stroke-width="2" d="M86.4115,-215.849C100.308,-178.675 133.294,-90.4388 149.974,-45.8204"/>
<polygon fill="grey" stroke="grey" points="153.335,-46.8249 153.558,-36.2325 146.778,-44.3737 153.335,-46.8249"/>
</g>
</g>
</svg>
