<?xml version="1.0" encoding="UTF-8" standalone="no"?>
<!DOCTYPE svg PUBLIC "-//W3C//DTD SVG 1.1//EN"
 "http://www.w3.org/Graphics/SVG/1.1/DTD/svg11.dtd">
<!-- Generated by graphviz version 2.30.1 (20201013.1554)
 -->
<!-- Title: snakemake_dag Pages: 1 -->
<svg width="421pt" height="1340pt"
 viewBox="0.00 0.00 421.00 1340.00" xmlns="http://www.w3.org/2000/svg" xmlns:xlink="http://www.w3.org/1999/xlink">
<g id="graph0" class="graph" transform="scale(1 1) rotate(0) translate(4 1336)">
<title>snakemake_dag</title>
<polygon fill="white" stroke="white" points="-4,5 -4,-1336 418,-1336 418,5 -4,5"/>
<!-- 0 -->
<g id="node1" class="node"><title>0</title>
<path fill="none" stroke="#56d8d8" stroke-width="2" d="M192,-36C192,-36 162,-36 162,-36 156,-36 150,-30 150,-24 150,-24 150,-12 150,-12 150,-6 156,-0 162,-0 162,-0 192,-0 192,-0 198,-0 204,-6 204,-12 204,-12 204,-24 204,-24 204,-30 198,-36 192,-36"/>
<text text-anchor="middle" x="177" y="-15.5" font-family="sans" font-size="10.00">all</text>
</g>
<!-- 1 -->
<g id="node2" class="node"><title>1</title>
<path fill="none" stroke="#56d8c1" stroke-width="2" d="M392,-252C392,-252 312,-252 312,-252 306,-252 300,-246 300,-240 300,-240 300,-228 300,-228 300,-222 306,-216 312,-216 312,-216 392,-216 392,-216 398,-216 404,-222 404,-228 404,-228 404,-240 404,-240 404,-246 398,-252 392,-252"/>
<text text-anchor="middle" x="352" y="-231.5" font-family="sans" font-size="10.00">modkit_combined</text>
</g>
<!-- 1&#45;&gt;0 -->
<g id="edge1" class="edge"><title>1&#45;&gt;0</title>
<path fill="none" stroke="grey" stroke-width="2" d="M354.726,-215.915C356.927,-197.474 358.316,-167.581 349,-144 325.797,-85.2716 256.804,-49.2158 213.576,-31.755"/>
<polygon fill="grey" stroke="grey" points="214.829,-28.4871 204.241,-28.1107 212.283,-35.0078 214.829,-28.4871"/>
</g>
<!-- 14 -->
<g id="node15" class="node"><title>14</title>
<path fill="none" stroke="#c6d856" stroke-width="2" d="M212,-180C212,-180 174,-180 174,-180 168,-180 162,-174 162,-168 162,-168 162,-156 162,-156 162,-150 168,-144 174,-144 174,-144 212,-144 212,-144 218,-144 224,-150 224,-156 224,-156 224,-168 224,-168 224,-174 218,-180 212,-180"/>
<text text-anchor="middle" x="193" y="-159.5" font-family="sans" font-size="10.00">bedgraph</text>
</g>
<!-- 1&#45;&gt;14 -->
<g id="edge29" class="edge"><title>1&#45;&gt;14</title>
<path fill="none" stroke="grey" stroke-width="2" d="M313.104,-215.876C288.918,-205.228 257.877,-191.562 233.411,-180.791"/>
<polygon fill="grey" stroke="grey" points="234.61,-177.495 224.048,-176.669 231.79,-183.901 234.61,-177.495"/>
</g>
<!-- 2 -->
<g id="node3" class="node"><title>2</title>
<path fill="none" stroke="#56a9d8" stroke-width="2" d="M287.25,-396C287.25,-396 252.75,-396 252.75,-396 246.75,-396 240.75,-390 240.75,-384 240.75,-384 240.75,-372 240.75,-372 240.75,-366 246.75,-360 252.75,-360 252.75,-360 287.25,-360 287.25,-360 293.25,-360 299.25,-366 299.25,-372 299.25,-372 299.25,-384 299.25,-384 299.25,-390 293.25,-396 287.25,-396"/>
<text text-anchor="middle" x="270" y="-375.5" font-family="sans" font-size="10.00">haplotag</text>
</g>
<!-- 2&#45;&gt;1 -->
<g id="edge6" class="edge"><title>2&#45;&gt;1</title>
<path fill="none" stroke="grey" stroke-width="2" d="M288.703,-359.723C298.435,-349.965 309.948,-337.12 318,-324 329.916,-304.583 338.852,-280.297 344.565,-262.001"/>
<polygon fill="grey" stroke="grey" points="347.965,-262.847 347.48,-252.264 341.259,-260.84 347.965,-262.847"/>
</g>
<!-- 12 -->
<g id="node13" class="node"><title>12</title>
<path fill="none" stroke="#d88556" stroke-width="2" d="M297,-324C297,-324 229,-324 229,-324 223,-324 217,-318 217,-312 217,-312 217,-300 217,-300 217,-294 223,-288 229,-288 229,-288 297,-288 297,-288 303,-288 309,-294 309,-300 309,-300 309,-312 309,-312 309,-318 303,-324 297,-324"/>
<text text-anchor="middle" x="263" y="-303.5" font-family="sans" font-size="10.00">index_haplotag</text>
</g>
<!-- 2&#45;&gt;12 -->
<g id="edge26" class="edge"><title>2&#45;&gt;12</title>
<path fill="none" stroke="grey" stroke-width="2" d="M268.27,-359.697C267.498,-351.983 266.571,-342.712 265.711,-334.112"/>
<polygon fill="grey" stroke="grey" points="269.188,-333.706 264.71,-324.104 262.223,-334.403 269.188,-333.706"/>
</g>
<!-- 16 -->
<g id="node17" class="node"><title>16</title>
<path fill="none" stroke="#d8ac56" stroke-width="2" d="M185,-252C185,-252 155,-252 155,-252 149,-252 143,-246 143,-240 143,-240 143,-228 143,-228 143,-222 149,-216 155,-216 155,-216 185,-216 185,-216 191,-216 197,-222 197,-228 197,-228 197,-240 197,-240 197,-246 191,-252 185,-252"/>
<text text-anchor="middle" x="170" y="-231.5" font-family="sans" font-size="10.00">modkit</text>
</g>
<!-- 2&#45;&gt;16 -->
<g id="edge32" class="edge"><title>2&#45;&gt;16</title>
<path fill="none" stroke="grey" stroke-width="2" d="M244.922,-359.849C232.549,-350.405 218.143,-337.81 208,-324 194.154,-305.149 184.129,-280.48 177.864,-261.896"/>
<polygon fill="grey" stroke="grey" points="181.163,-260.722 174.77,-252.273 174.499,-262.865 181.163,-260.722"/>
</g>
<!-- 3 -->
<g id="node4" class="node"><title>3</title>
<path fill="none" stroke="#56d8a9" stroke-width="2" d="M179.25,-468C179.25,-468 136.75,-468 136.75,-468 130.75,-468 124.75,-462 124.75,-456 124.75,-456 124.75,-444 124.75,-444 124.75,-438 130.75,-432 136.75,-432 136.75,-432 179.25,-432 179.25,-432 185.25,-432 191.25,-438 191.25,-444 191.25,-444 191.25,-456 191.25,-456 191.25,-462 185.25,-468 179.25,-468"/>
<text text-anchor="middle" x="158" y="-447.5" font-family="sans" font-size="10.00">longphase</text>
</g>
<!-- 3&#45;&gt;2 -->
<g id="edge9" class="edge"><title>3&#45;&gt;2</title>
<path fill="none" stroke="grey" stroke-width="2" d="M185.398,-431.876C199.907,-422.808 217.916,-411.552 233.585,-401.759"/>
<polygon fill="grey" stroke="grey" points="235.871,-404.458 242.496,-396.19 232.161,-398.522 235.871,-404.458"/>
</g>
<!-- 4 -->
<g id="node5" class="node"><title>4</title>
<path fill="none" stroke="#68d856" stroke-width="2" d="M137,-540C137,-540 65,-540 65,-540 59,-540 53,-534 53,-528 53,-528 53,-516 53,-516 53,-510 59,-504 65,-504 65,-504 137,-504 137,-504 143,-504 149,-510 149,-516 149,-516 149,-528 149,-528 149,-534 143,-540 137,-540"/>
<text text-anchor="middle" x="101" y="-519.5" font-family="sans" font-size="10.00">merge_chr_calls</text>
</g>
<!-- 4&#45;&gt;3 -->
<g id="edge13" class="edge"><title>4&#45;&gt;3</title>
<path fill="none" stroke="grey" stroke-width="2" d="M115.09,-503.697C121.923,-495.305 130.257,-485.07 137.756,-475.861"/>
<polygon fill="grey" stroke="grey" points="140.472,-478.069 144.072,-468.104 135.044,-473.649 140.472,-478.069"/>
</g>
<!-- 23 -->
<g id="node24" class="node"><title>23</title>
<path fill="none" stroke="#56d89a" stroke-width="2" d="M146,-396C146,-396 46,-396 46,-396 40,-396 34,-390 34,-384 34,-384 34,-372 34,-372 34,-366 40,-360 46,-360 46,-360 146,-360 146,-360 152,-360 158,-366 158,-372 158,-372 158,-384 158,-384 158,-390 152,-396 146,-396"/>
<text text-anchor="middle" x="96" y="-375.5" font-family="sans" font-size="10.00">remove_vc_unwanted</text>
</g>
<!-- 4&#45;&gt;23 -->
<g id="edge41" class="edge"><title>4&#45;&gt;23</title>
<path fill="none" stroke="grey" stroke-width="2" d="M100.397,-503.871C99.5447,-479.67 97.9793,-435.211 96.9645,-406.393"/>
<polygon fill="grey" stroke="grey" points="100.455,-406.06 96.6053,-396.189 93.4594,-406.306 100.455,-406.06"/>
</g>
<!-- 5 -->
<g id="node6" class="node"><title>5</title>
<path fill="none" stroke="#569ad8" stroke-width="2" d="M142,-612C142,-612 112,-612 112,-612 106,-612 100,-606 100,-600 100,-600 100,-588 100,-588 100,-582 106,-576 112,-576 112,-576 142,-576 142,-576 148,-576 154,-582 154,-588 154,-588 154,-600 154,-600 154,-606 148,-612 142,-612"/>
<text text-anchor="middle" x="127" y="-591.5" font-family="sans" font-size="10.00">clair3</text>
</g>
<!-- 5&#45;&gt;4 -->
<g id="edge16" class="edge"><title>5&#45;&gt;4</title>
<path fill="none" stroke="grey" stroke-width="2" d="M120.573,-575.697C117.645,-567.813 114.113,-558.304 110.86,-549.546"/>
<polygon fill="grey" stroke="grey" points="114.116,-548.26 107.353,-540.104 107.554,-550.697 114.116,-548.26"/>
</g>
<!-- 6 -->
<g id="node7" class="node"><title>6</title>
<path fill="none" stroke="#97d856" stroke-width="2" d="M142,-684C142,-684 48,-684 48,-684 42,-684 36,-678 36,-672 36,-672 36,-660 36,-660 36,-654 42,-648 48,-648 48,-648 142,-648 142,-648 148,-648 154,-654 154,-660 154,-660 154,-672 154,-672 154,-678 148,-684 142,-684"/>
<text text-anchor="middle" x="95" y="-663.5" font-family="sans" font-size="10.00">split_bam_by_chrom</text>
</g>
<!-- 6&#45;&gt;5 -->
<g id="edge17" class="edge"><title>6&#45;&gt;5</title>
<path fill="none" stroke="grey" stroke-width="2" d="M102.91,-647.697C106.553,-639.728 110.954,-630.1 114.994,-621.264"/>
<polygon fill="grey" stroke="grey" points="118.206,-622.654 119.181,-612.104 111.84,-619.744 118.206,-622.654"/>
</g>
<!-- 11 -->
<g id="node12" class="node"><title>11</title>
<path fill="none" stroke="#d86e56" stroke-width="2" d="M70,-612C70,-612 40,-612 40,-612 34,-612 28,-606 28,-600 28,-600 28,-588 28,-588 28,-582 34,-576 40,-576 40,-576 70,-576 70,-576 76,-576 82,-582 82,-588 82,-588 82,-600 82,-600 82,-606 76,-612 70,-612"/>
<text text-anchor="middle" x="55" y="-591.5" font-family="sans" font-size="10.00">sniffles</text>
</g>
<!-- 6&#45;&gt;11 -->
<g id="edge25" class="edge"><title>6&#45;&gt;11</title>
<path fill="none" stroke="grey" stroke-width="2" d="M85.1124,-647.697C80.5107,-639.644 74.9397,-629.894 69.8471,-620.982"/>
<polygon fill="grey" stroke="grey" points="72.7742,-619.05 64.7739,-612.104 66.6965,-622.523 72.7742,-619.05"/>
</g>
<!-- 7 -->
<g id="node8" class="node"><title>7</title>
<path fill="none" stroke="#56d86b" stroke-width="2" d="M249.25,-828C249.25,-828 196.75,-828 196.75,-828 190.75,-828 184.75,-822 184.75,-816 184.75,-816 184.75,-804 184.75,-804 184.75,-798 190.75,-792 196.75,-792 196.75,-792 249.25,-792 249.25,-792 255.25,-792 261.25,-798 261.25,-804 261.25,-804 261.25,-816 261.25,-816 261.25,-822 255.25,-828 249.25,-828"/>
<text text-anchor="middle" x="223" y="-807.5" font-family="sans" font-size="10.00">merge_align</text>
</g>
<!-- 7&#45;&gt;1 -->
<g id="edge8" class="edge"><title>7&#45;&gt;1</title>
<path fill="none" stroke="grey" stroke-width="2" d="M261.391,-801.361C290.996,-793.887 331.556,-780.027 360,-756 395.17,-726.292 413,-713.038 413,-667 413,-667 413,-667 413,-377 413,-333.609 388.657,-288.372 370.727,-260.938"/>
<polygon fill="grey" stroke="grey" points="373.427,-258.682 364.937,-252.345 367.622,-262.594 373.427,-258.682"/>
</g>
<!-- 7&#45;&gt;2 -->
<g id="edge11" class="edge"><title>7&#45;&gt;2</title>
<path fill="none" stroke="grey" stroke-width="2" d="M261.43,-796.574C283.339,-787.954 310.107,-774.642 329,-756 360.695,-724.726 375,-711.527 375,-667 375,-667 375,-667 375,-521 375,-471.464 333.179,-427.895 302.324,-402.492"/>
<polygon fill="grey" stroke="grey" points="304.351,-399.631 294.353,-396.125 299.983,-405.101 304.351,-399.631"/>
</g>
<!-- 7&#45;&gt;3 -->
<g id="edge14" class="edge"><title>7&#45;&gt;3</title>
<path fill="none" stroke="grey" stroke-width="2" d="M214.703,-791.971C202.723,-765.77 182,-713.701 182,-667 182,-667 182,-667 182,-593 182,-552.65 172.462,-506.742 165.412,-478.319"/>
<polygon fill="grey" stroke="grey" points="168.726,-477.15 162.857,-468.329 161.944,-478.885 168.726,-477.15"/>
</g>
<!-- 7&#45;&gt;6 -->
<g id="edge19" class="edge"><title>7&#45;&gt;6</title>
<path fill="none" stroke="grey" stroke-width="2" d="M204.135,-791.854C193.263,-781.722 179.513,-768.472 168,-756 149.012,-735.431 128.947,-710.724 114.669,-692.567"/>
<polygon fill="grey" stroke="grey" points="117.069,-689.953 108.155,-684.226 111.552,-694.262 117.069,-689.953"/>
</g>
<!-- 10 -->
<g id="node11" class="node"><title>10</title>
<path fill="none" stroke="#5682d8" stroke-width="2" d="M308,-756C308,-756 222,-756 222,-756 216,-756 210,-750 210,-744 210,-744 210,-732 210,-732 210,-726 216,-720 222,-720 222,-720 308,-720 308,-720 314,-720 320,-726 320,-732 320,-732 320,-744 320,-744 320,-750 314,-756 308,-756"/>
<text text-anchor="middle" x="265" y="-735.5" font-family="sans" font-size="10.00">index_merge_align</text>
</g>
<!-- 7&#45;&gt;10 -->
<g id="edge24" class="edge"><title>7&#45;&gt;10</title>
<path fill="none" stroke="grey" stroke-width="2" d="M233.382,-791.697C238.265,-783.559 244.187,-773.689 249.579,-764.701"/>
<polygon fill="grey" stroke="grey" points="252.594,-766.48 254.737,-756.104 246.591,-762.879 252.594,-766.48"/>
</g>
<!-- 7&#45;&gt;16 -->
<g id="edge34" class="edge"><title>7&#45;&gt;16</title>
<path fill="none" stroke="grey" stroke-width="2" d="M184.665,-802.634C120.906,-789.614 0,-753.518 0,-667 0,-667 0,-667 0,-377 0,-308.141 83.1722,-266.137 133.165,-247.109"/>
<polygon fill="grey" stroke="grey" points="134.508,-250.345 142.687,-243.609 132.093,-243.775 134.508,-250.345"/>
</g>
<!-- 8 -->
<g id="node9" class="node"><title>8</title>
<path fill="none" stroke="#afd856" stroke-width="2" d="M257,-972C257,-972 189,-972 189,-972 183,-972 177,-966 177,-960 177,-960 177,-948 177,-948 177,-942 183,-936 189,-936 189,-936 257,-936 257,-936 263,-936 269,-942 269,-948 269,-948 269,-960 269,-960 269,-966 263,-972 257,-972"/>
<text text-anchor="middle" x="223" y="-951.5" font-family="sans" font-size="10.00">link_meth_tags</text>
</g>
<!-- 8&#45;&gt;7 -->
<g id="edge21" class="edge"><title>8&#45;&gt;7</title>
<path fill="none" stroke="grey" stroke-width="2" d="M216.762,-935.593C213.433,-925.374 209.683,-912.124 208,-900 205.801,-884.152 205.801,-879.848 208,-864 209.183,-855.475 211.388,-846.394 213.751,-838.201"/>
<polygon fill="grey" stroke="grey" points="217.168,-838.994 216.762,-828.407 210.478,-836.937 217.168,-838.994"/>
</g>
<!-- 17 -->
<g id="node18" class="node"><title>17</title>
<path fill="none" stroke="#d85656" stroke-width="2" d="M286.25,-900C286.25,-900 229.75,-900 229.75,-900 223.75,-900 217.75,-894 217.75,-888 217.75,-888 217.75,-876 217.75,-876 217.75,-870 223.75,-864 229.75,-864 229.75,-864 286.25,-864 286.25,-864 292.25,-864 298.25,-870 298.25,-876 298.25,-876 298.25,-888 298.25,-888 298.25,-894 292.25,-900 286.25,-900"/>
<text text-anchor="middle" x="258" y="-879.5" font-family="sans" font-size="10.00">haplotag_trio</text>
</g>
<!-- 8&#45;&gt;17 -->
<g id="edge35" class="edge"><title>8&#45;&gt;17</title>
<path fill="none" stroke="grey" stroke-width="2" d="M231.652,-935.697C235.636,-927.728 240.45,-918.1 244.868,-909.264"/>
<polygon fill="grey" stroke="grey" points="248.106,-910.614 249.448,-900.104 241.845,-907.483 248.106,-910.614"/>
</g>
<!-- 9 -->
<g id="node10" class="node"><title>9</title>
<path fill="none" stroke="#56d882" stroke-width="2" d="M238,-1044C238,-1044 208,-1044 208,-1044 202,-1044 196,-1038 196,-1032 196,-1032 196,-1020 196,-1020 196,-1014 202,-1008 208,-1008 208,-1008 238,-1008 238,-1008 244,-1008 250,-1014 250,-1020 250,-1020 250,-1032 250,-1032 250,-1038 244,-1044 238,-1044"/>
<text text-anchor="middle" x="223" y="-1023.5" font-family="sans" font-size="10.00">align</text>
</g>
<!-- 9&#45;&gt;8 -->
<g id="edge22" class="edge"><title>9&#45;&gt;8</title>
<path fill="none" stroke="grey" stroke-width="2" d="M223,-1007.7C223,-999.983 223,-990.712 223,-982.112"/>
<polygon fill="grey" stroke="grey" points="226.5,-982.104 223,-972.104 219.5,-982.104 226.5,-982.104"/>
</g>
<!-- 10&#45;&gt;1 -->
<g id="edge5" class="edge"><title>10&#45;&gt;1</title>
<path fill="none" stroke="grey" stroke-width="2" d="M280.623,-719.617C301.799,-694.188 337,-644.477 337,-595 337,-595 337,-595 337,-521 337,-425.808 345.389,-313.038 349.62,-262.223"/>
<polygon fill="grey" stroke="grey" points="353.124,-262.328 350.479,-252.069 346.148,-261.738 353.124,-262.328"/>
</g>
<!-- 10&#45;&gt;2 -->
<g id="edge10" class="edge"><title>10&#45;&gt;2</title>
<path fill="none" stroke="grey" stroke-width="2" d="M271.273,-719.776C280.332,-693.322 296,-640.925 296,-595 296,-595 296,-595 296,-521 296,-480.553 285.667,-434.67 278.03,-406.279"/>
<polygon fill="grey" stroke="grey" points="281.308,-405.002 275.261,-396.302 274.562,-406.873 281.308,-405.002"/>
</g>
<!-- 10&#45;&gt;3 -->
<g id="edge12" class="edge"><title>10&#45;&gt;3</title>
<path fill="none" stroke="grey" stroke-width="2" d="M261.974,-719.905C254.548,-680.368 233.263,-580.171 196,-504 191.298,-494.389 184.89,-484.652 178.675,-476.191"/>
<polygon fill="grey" stroke="grey" points="181.439,-474.043 172.596,-468.207 175.87,-478.284 181.439,-474.043"/>
</g>
<!-- 10&#45;&gt;6 -->
<g id="edge18" class="edge"><title>10&#45;&gt;6</title>
<path fill="none" stroke="grey" stroke-width="2" d="M223.413,-719.876C199.967,-710.222 170.496,-698.087 145.703,-687.878"/>
<polygon fill="grey" stroke="grey" points="147.031,-684.639 136.452,-684.068 144.366,-691.112 147.031,-684.639"/>
</g>
<!-- 10&#45;&gt;16 -->
<g id="edge31" class="edge"><title>10&#45;&gt;16</title>
<path fill="none" stroke="grey" stroke-width="2" d="M255.676,-719.63C242.495,-693.412 220,-641.809 220,-595 220,-595 220,-595 220,-521 220,-432.073 200.168,-411.624 185,-324 181.415,-303.287 177.468,-279.841 174.523,-262.215"/>
<polygon fill="grey" stroke="grey" points="177.928,-261.358 172.831,-252.07 171.023,-262.509 177.928,-261.358"/>
</g>
<!-- 11&#45;&gt;4 -->
<g id="edge15" class="edge"><title>11&#45;&gt;4</title>
<path fill="none" stroke="grey" stroke-width="2" d="M66.3708,-575.697C71.7185,-567.559 78.2043,-557.689 84.1106,-548.701"/>
<polygon fill="grey" stroke="grey" points="87.1932,-550.384 89.76,-540.104 81.3432,-546.539 87.1932,-550.384"/>
</g>
<!-- 12&#45;&gt;1 -->
<g id="edge7" class="edge"><title>12&#45;&gt;1</title>
<path fill="none" stroke="grey" stroke-width="2" d="M285,-287.697C296.209,-278.881 310.002,-268.032 322.154,-258.474"/>
<polygon fill="grey" stroke="grey" points="324.557,-261.038 330.253,-252.104 320.229,-255.535 324.557,-261.038"/>
</g>
<!-- 12&#45;&gt;16 -->
<g id="edge33" class="edge"><title>12&#45;&gt;16</title>
<path fill="none" stroke="grey" stroke-width="2" d="M240.011,-287.697C228.186,-278.796 213.608,-267.823 200.821,-258.199"/>
<polygon fill="grey" stroke="grey" points="202.819,-255.322 192.724,-252.104 198.609,-260.915 202.819,-255.322"/>
</g>
<!-- 13 -->
<g id="node14" class="node"><title>13</title>
<path fill="none" stroke="#59d856" stroke-width="2" d="M265.25,-108C265.25,-108 174.75,-108 174.75,-108 168.75,-108 162.75,-102 162.75,-96 162.75,-96 162.75,-84 162.75,-84 162.75,-78 168.75,-72 174.75,-72 174.75,-72 265.25,-72 265.25,-72 271.25,-72 277.25,-78 277.25,-84 277.25,-84 277.25,-96 277.25,-96 277.25,-102 271.25,-108 265.25,-108"/>
<text text-anchor="middle" x="220" y="-87.5" font-family="sans" font-size="10.00">bedgraph_to_bigwig</text>
</g>
<!-- 13&#45;&gt;0 -->
<g id="edge3" class="edge"><title>13&#45;&gt;0</title>
<path fill="none" stroke="grey" stroke-width="2" d="M209.371,-71.6966C204.372,-63.5589 198.309,-53.689 192.788,-44.7013"/>
<polygon fill="grey" stroke="grey" points="195.723,-42.7931 187.507,-36.1043 189.759,-46.4571 195.723,-42.7931"/>
</g>
<!-- 14&#45;&gt;13 -->
<g id="edge28" class="edge"><title>14&#45;&gt;13</title>
<path fill="none" stroke="grey" stroke-width="2" d="M199.674,-143.697C202.715,-135.813 206.383,-126.304 209.761,-117.546"/>
<polygon fill="grey" stroke="grey" points="213.069,-118.694 213.403,-108.104 206.538,-116.175 213.069,-118.694"/>
</g>
<!-- 15 -->
<g id="node16" class="node"><title>15</title>
<path fill="none" stroke="#566bd8" stroke-width="2" d="M328,-180C328,-180 254,-180 254,-180 248,-180 242,-174 242,-168 242,-168 242,-156 242,-156 242,-150 248,-144 254,-144 254,-144 328,-144 328,-144 334,-144 340,-150 340,-156 340,-156 340,-168 340,-168 340,-174 334,-180 328,-180"/>
<text text-anchor="middle" x="291" y="-159.5" font-family="sans" font-size="10.00">get_chrom_sizes</text>
</g>
<!-- 15&#45;&gt;13 -->
<g id="edge27" class="edge"><title>15&#45;&gt;13</title>
<path fill="none" stroke="grey" stroke-width="2" d="M273.449,-143.697C264.766,-135.135 254.137,-124.656 244.652,-115.304"/>
<polygon fill="grey" stroke="grey" points="246.927,-112.633 237.349,-108.104 242.012,-117.617 246.927,-112.633"/>
</g>
<!-- 16&#45;&gt;0 -->
<g id="edge2" class="edge"><title>16&#45;&gt;0</title>
<path fill="none" stroke="grey" stroke-width="2" d="M162.934,-215.665C159.162,-205.47 154.912,-192.22 153,-180 145.581,-132.577 142.872,-118.919 153,-72 154.961,-62.9165 158.612,-53.5168 162.485,-45.2013"/>
<polygon fill="grey" stroke="grey" points="165.731,-46.5344 167.046,-36.0215 159.462,-43.4197 165.731,-46.5344"/>
</g>
<!-- 16&#45;&gt;14 -->
<g id="edge30" class="edge"><title>16&#45;&gt;14</title>
<path fill="none" stroke="grey" stroke-width="2" d="M175.685,-215.697C178.248,-207.898 181.333,-198.509 184.185,-189.829"/>
<polygon fill="grey" stroke="grey" points="187.584,-190.697 187.38,-180.104 180.933,-188.512 187.584,-190.697"/>
</g>
<!-- 17&#45;&gt;7 -->
<g id="edge20" class="edge"><title>17&#45;&gt;7</title>
<path fill="none" stroke="grey" stroke-width="2" d="M249.348,-863.697C245.364,-855.728 240.55,-846.1 236.132,-837.264"/>
<polygon fill="grey" stroke="grey" points="239.155,-835.483 231.552,-828.104 232.894,-838.614 239.155,-835.483"/>
</g>
<!-- 18 -->
<g id="node19" class="node"><title>18</title>
<path fill="none" stroke="#80d856" stroke-width="2" d="M262.25,-1116C262.25,-1116 183.75,-1116 183.75,-1116 177.75,-1116 171.75,-1110 171.75,-1104 171.75,-1104 171.75,-1092 171.75,-1092 171.75,-1086 177.75,-1080 183.75,-1080 183.75,-1080 262.25,-1080 262.25,-1080 268.25,-1080 274.25,-1086 274.25,-1092 274.25,-1092 274.25,-1104 274.25,-1104 274.25,-1110 268.25,-1116 262.25,-1116"/>
<text text-anchor="middle" x="223" y="-1095.5" font-family="sans" font-size="10.00">correspond_reads</text>
</g>
<!-- 18&#45;&gt;9 -->
<g id="edge23" class="edge"><title>18&#45;&gt;9</title>
<path fill="none" stroke="grey" stroke-width="2" d="M223,-1079.7C223,-1071.98 223,-1062.71 223,-1054.11"/>
<polygon fill="grey" stroke="grey" points="226.5,-1054.1 223,-1044.1 219.5,-1054.1 226.5,-1054.1"/>
</g>
<!-- 19 -->
<g id="node20" class="node"><title>19</title>
<path fill="none" stroke="#d6d856" stroke-width="2" d="M196.25,-1188C196.25,-1188 113.75,-1188 113.75,-1188 107.75,-1188 101.75,-1182 101.75,-1176 101.75,-1176 101.75,-1164 101.75,-1164 101.75,-1158 107.75,-1152 113.75,-1152 113.75,-1152 196.25,-1152 196.25,-1152 202.25,-1152 208.25,-1158 208.25,-1164 208.25,-1164 208.25,-1176 208.25,-1176 208.25,-1182 202.25,-1188 196.25,-1188"/>
<text text-anchor="middle" x="155" y="-1167.5" font-family="sans" font-size="10.00">extract_hap_reads</text>
</g>
<!-- 19&#45;&gt;18 -->
<g id="edge36" class="edge"><title>19&#45;&gt;18</title>
<path fill="none" stroke="grey" stroke-width="2" d="M171.809,-1151.7C180.126,-1143.14 190.305,-1132.66 199.39,-1123.3"/>
<polygon fill="grey" stroke="grey" points="201.927,-1125.72 206.384,-1116.1 196.906,-1120.84 201.927,-1125.72"/>
</g>
<!-- 20 -->
<g id="node21" class="node"><title>20</title>
<path fill="none" stroke="#d89556" stroke-width="2" d="M270.25,-1260C270.25,-1260 175.75,-1260 175.75,-1260 169.75,-1260 163.75,-1254 163.75,-1248 163.75,-1248 163.75,-1236 163.75,-1236 163.75,-1230 169.75,-1224 175.75,-1224 175.75,-1224 270.25,-1224 270.25,-1224 276.25,-1224 282.25,-1230 282.25,-1236 282.25,-1236 282.25,-1248 282.25,-1248 282.25,-1254 276.25,-1260 270.25,-1260"/>
<text text-anchor="middle" x="223" y="-1239.5" font-family="sans" font-size="10.00">rename_canu_output</text>
</g>
<!-- 20&#45;&gt;19 -->
<g id="edge38" class="edge"><title>20&#45;&gt;19</title>
<path fill="none" stroke="grey" stroke-width="2" d="M206.191,-1223.7C197.874,-1215.14 187.695,-1204.66 178.61,-1195.3"/>
<polygon fill="grey" stroke="grey" points="181.094,-1192.84 171.616,-1188.1 176.073,-1197.72 181.094,-1192.84"/>
</g>
<!-- 22 -->
<g id="node23" class="node"><title>22</title>
<path fill="none" stroke="#d8c356" stroke-width="2" d="M345,-1188C345,-1188 239,-1188 239,-1188 233,-1188 227,-1182 227,-1176 227,-1176 227,-1164 227,-1164 227,-1158 233,-1152 239,-1152 239,-1152 345,-1152 345,-1152 351,-1152 357,-1158 357,-1164 357,-1164 357,-1176 357,-1176 357,-1182 351,-1188 345,-1188"/>
<text text-anchor="middle" x="292" y="-1167.5" font-family="sans" font-size="10.00">extract_non_hap_reads</text>
</g>
<!-- 20&#45;&gt;22 -->
<g id="edge40" class="edge"><title>20&#45;&gt;22</title>
<path fill="none" stroke="grey" stroke-width="2" d="M240.056,-1223.7C248.495,-1215.14 258.825,-1204.66 268.043,-1195.3"/>
<polygon fill="grey" stroke="grey" points="270.613,-1197.68 275.14,-1188.1 265.627,-1192.77 270.613,-1197.68"/>
</g>
<!-- 21 -->
<g id="node22" class="node"><title>21</title>
<path fill="none" stroke="#56c1d8" stroke-width="2" d="M242,-1332C242,-1332 204,-1332 204,-1332 198,-1332 192,-1326 192,-1320 192,-1320 192,-1308 192,-1308 192,-1302 198,-1296 204,-1296 204,-1296 242,-1296 242,-1296 248,-1296 254,-1302 254,-1308 254,-1308 254,-1320 254,-1320 254,-1326 248,-1332 242,-1332"/>
<text text-anchor="middle" x="223" y="-1311.5" font-family="sans" font-size="10.00">canu_trio</text>
</g>
<!-- 21&#45;&gt;20 -->
<g id="edge39" class="edge"><title>21&#45;&gt;20</title>
<path fill="none" stroke="grey" stroke-width="2" d="M223,-1295.7C223,-1287.98 223,-1278.71 223,-1270.11"/>
<polygon fill="grey" stroke="grey" points="226.5,-1270.1 223,-1260.1 219.5,-1270.1 226.5,-1270.1"/>
</g>
<!-- 22&#45;&gt;18 -->
<g id="edge37" class="edge"><title>22&#45;&gt;18</title>
<path fill="none" stroke="grey" stroke-width="2" d="M274.944,-1151.7C266.505,-1143.14 256.175,-1132.66 246.957,-1123.3"/>
<polygon fill="grey" stroke="grey" points="249.373,-1120.77 239.86,-1116.1 244.387,-1125.68 249.373,-1120.77"/>
</g>
<!-- 23&#45;&gt;0 -->
<g id="edge4" class="edge"><title>23&#45;&gt;0</title>
<path fill="none" stroke="grey" stroke-width="2" d="M96,-359.951C96,-333.292 96,-280.115 96,-235 96,-235 96,-235 96,-161 96,-114.96 128.524,-70.2501 152.354,-43.6714"/>
<polygon fill="grey" stroke="grey" points="155.206,-45.7423 159.424,-36.0235 150.066,-40.9904 155.206,-45.7423"/>
</g>
</g>
</svg>
